<svg id="レイヤー_1" data-name="レイヤー 1" xmlns="http://www.w3.org/2000/svg" viewBox="0 0 828.15302 141.10999"><defs><style>.cls-1{fill:#003f37;}.cls-2{fill:#009688;}.cls-10,.cls-3,.cls-5{fill:none;}.cls-3,.cls-4{stroke:#6d6d6d;}.cls-3,.cls-4,.cls-5,.cls-6{stroke-miterlimit:10;}.cls-3,.cls-5{stroke-width:3px;}.cls-4{fill:#6d6d6d;}.cls-4,.cls-6{stroke-width:2.775px;}.cls-10,.cls-5,.cls-6{stroke:#fff;}.cls-6,.cls-9{fill:#fff;}.cls-7{isolation:isolate;}.cls-8{fill:#f2f2f2;}.cls-10{stroke-linecap:round;stroke-linejoin:round;stroke-width:2.129px;}</style></defs><g id="グループ_295" data-name="グループ 295"><g id="グループ_67" data-name="グループ 67"><rect id="長方形_43" data-name="長方形 43" class="cls-1" x="2" y="6.807" width="822.56403" height="134.30299" rx="57.289"/><rect id="長方形_44" data-name="長方形 44" class="cls-2" width="828.15302" height="135" rx="57.289"/><g id="グループ_66" data-name="グループ 66"><g id="グループ_63" data-name="グループ 63"><circle id="楕円形_7" data-name="楕円形 7" class="cls-3" cx="739.869" cy="69.5" r="19.934"/><path id="パス_399" data-name="パス 399" class="cls-4" d="M1282.30713,581.79111l10.96906,8.332-10.969,7.8v-1.453l8.992-6.30005-8.992-7.024Z" transform="translate(-545.61914 -520.35805)"/></g><g id="グループ_65" data-name="グループ 65"><g id="グループ_64" data-name="グループ 64"><circle id="楕円形_8" data-name="楕円形 8" class="cls-5" cx="740.869" cy="67.5" r="19.934"/><path id="パス_400" data-name="パス 400" class="cls-6" d="M1283.30713,579.79111l10.96906,8.332-10.969,7.8v-1.453l8.992-6.30005-8.992-7.024Z" transform="translate(-545.61914 -520.35805)"/></g></g></g><g id="LINE登録はこちら-2" class="cls-7"><g class="cls-7"><path class="cls-8" d="M782.61133,603.89844H761.8916V563.96338h4.67871V599.665h16.041Z" transform="translate(-545.61914 -520.35805)"/><path class="cls-8" d="M796.26807,603.89844h-4.67871V563.96338h4.67871Z" transform="translate(-545.61914 -520.35805)"/><path class="cls-8" d="M841.812,603.89844H836.0752L815.523,572.06689a13.27615,13.27615,0,0,1-1.28125-2.50585h-.167a41.12618,41.12618,0,0,1,.22265,5.48535v28.85205h-4.67871V563.96338h6.07129L835.68506,595.293q1.25317,1.9497,1.61523,2.67383h.11133a42.27505,42.27505,0,0,1-.27832-5.876V563.96338H841.812Z" transform="translate(-545.61914 -520.35805)"/><path class="cls-8" d="M876.29932,603.89844h-21.165V563.96338H875.4082v4.23242H859.813V581.48h14.42578v4.20508H859.813v13.98h16.48633Z" transform="translate(-545.61914 -520.35805)"/></g><g class="cls-7"><path class="cls-8" d="M936.29688,581.17383a8.01471,8.01471,0,0,0-1.47657,2.03222q-.47315.86427-.75195.86329a2.89744,2.89744,0,0,1-.835-.27832,61.67768,61.67768,0,0,1-14.6211-8.79981,36.69654,36.69654,0,0,1-8.77246-10.80566,48.42573,48.42573,0,0,1-9.80175,11.61328,64.541,64.541,0,0,1-13.06153,8.29883,3.15463,3.15463,0,0,1-.86328.27832q-.27832,0-.80762-.91895a5.91566,5.91566,0,0,0-1.47558-1.72656,58.41418,58.41418,0,0,0,12.94922-7.46387,41.582,41.582,0,0,0-6.5166-5.709c-.167-.11133-.251-.2041-.251-.27832q0-.13917.30664-.44532l1.39258-1.25293q.30615-.30615.44531-.30664a.6139.6139,0,0,1,.334.13965,51.92662,51.92662,0,0,1,6.7959,5.792,43.14656,43.14656,0,0,0,7.2959-8.71679h-8.21582l-5.876.11133q-.501,0-.501-.44532v-2.22754c0-.29687.167-.44628.501-.44628l5.876.1123h7.88184l4.623-.1123q.44532,0,.72364.64062a27.01337,27.01337,0,0,0,2.11621,3.89941,32.96392,32.96392,0,0,0,2.45117,3.31348,36.86313,36.86313,0,0,0,4.62305-4.8457,11.51243,11.51243,0,0,0,1.36425-2.2002,17.836,17.836,0,0,1,2.8125,1.75489.96234.96234,0,0,1,.44532.668q0,.36329-.55664.64063a4.99435,4.99435,0,0,0-1.78223,1.4209,58.39183,58.39183,0,0,1-4.90137,4.67871,51.15579,51.15579,0,0,0,4.26074,3.5918,59.82518,59.82518,0,0,0,5.48633-5.31934,13.6214,13.6214,0,0,0,1.53125-2.19922,21.57281,21.57281,0,0,1,2.72949,1.75391q.52881.44677.5293.66894v.083a1.02809,1.02809,0,0,1-.752.66895,4.79176,4.79176,0,0,0-1.69922,1.25292,60.04624,60.04624,0,0,1-5.34668,4.73438A58.71348,58.71348,0,0,0,936.29688,581.17383Zm-1.36524,26.20508a.3936.3936,0,0,1-.44531.44531l-7.49121-.11133h-33.6416l-7.4629.11133c-.3164,0-.47363-.14844-.47363-.44531v-2.42286c0-.29687.15723-.44531.47363-.44531l7.4629.11133h20.52441q1.47656-2.42284,2.75781-4.957a14.25268,14.25268,0,0,0,1.08594-3.20313,27.58843,27.58843,0,0,1,3.31348,1.30957.70093.70093,0,0,1,.50195.64063q0,.27832-.50195.668a4.33644,4.33644,0,0,0-1.16895,1.55957q-2.0332,3.45409-2.39551,3.98242h9.52442l7.49121-.11133a.3936.3936,0,0,1,.44531.44531ZM924.65625,595.042a.39429.39429,0,0,1-.44629.44531l-7.54687-.11132H903.51855l-7.49121.11132a.3936.3936,0,0,1-.44531-.44531l.11133-3.98242v-3.62012L895.582,583.457a.3936.3936,0,0,1,.44531-.44531l7.49121.11133h13.14454l7.54687-.11133a.39429.39429,0,0,1,.44629.44531l-.1123,3.98242v3.62012Zm-3.48145-2.45019v-6.62793H899.0625v6.62793Zm-15.90136,9.69043a1.3714,1.3714,0,0,1,.083.335q0,.19482-.64063.52929l-1.50391.751a2.40715,2.40715,0,0,1-.69531.22363q-.19629,0-.335-.3623a24.30221,24.30221,0,0,0-2.72852-5.40234.75692.75692,0,0,1-.13964-.30665q0-.167.6123-.44531l1.47656-.66894a1.56,1.56,0,0,1,.585-.22266q.13917,0,.38965.334A30.45581,30.45581,0,0,1,905.27344,602.28223ZM918.919,578.5q0,.44532-.418.44531l-5.709-.11133h-5.876l-5.625.11133c-.31641,0-.47364-.14843-.47364-.44531v-2.22754c0-.29687.15723-.44629.47364-.44629l5.625.11133h5.876l5.709-.11133c.27832,0,.418.14942.418.44629Z" transform="translate(-545.61914 -520.35805)"/><path class="cls-8" d="M966.5791,569.22656a4.05294,4.05294,0,0,0-1.47558,1.80957q-.419.75294-.585.752a4.69716,4.69716,0,0,1-.86328-.584,44.05172,44.05172,0,0,1-6.65625-7.57519,50.61229,50.61229,0,0,1-10.05273,11.3623,2.23048,2.23048,0,0,1-.83594.44531q-.334,0-.585-.75195a5.06457,5.06457,0,0,0-1.30859-1.97754,35.26232,35.26232,0,0,0,10.08105-11.02734,8.36853,8.36853,0,0,0,1.22559-3.06348,18.46318,18.46318,0,0,1,3.28613.91895q.58447.167.585.501a.88031.88031,0,0,1-.5293.752l-.44531.334A40.17275,40.17275,0,0,0,966.5791,569.22656Zm-.94726,16.23535c0,.29786-.15723.44532-.47266.44532l-5.93164-.11133H957.918v15.76269a69.36994,69.36994,0,0,0,6.85058-2.6455,8.98071,8.98071,0,0,0-.27832,2.11621,1.67653,1.67653,0,0,1-.25,1.11425,2.336,2.336,0,0,1-.83593.418q-5.82129,2.25587-13.53418,4.45508a7.12958,7.12958,0,0,0-2.11621.86328,1.35716,1.35716,0,0,1-.752.335.62278.62278,0,0,1-.66894-.44629q-.41748-1.00194-1.08594-3.14648a34.05876,34.05876,0,0,0,4.34473-.72461q3.98143-.97411,5.17968-1.33594V585.7959H952.543l-5.93164.11133a.39321.39321,0,0,1-.44531-.44532V583.29a.3936.3936,0,0,1,.44531-.44531l5.93164.11132h2.22851v-6.21093h-.38964l-4.84571.11133c-.3164,0-.47363-.17579-.47363-.52833v-2.0332a.41851.41851,0,0,1,.47363-.47363l4.84571.11133h4.39941l4.79-.11133c.29687,0,.44629.1582.44629.47363v2.0332c0,.35254-.14942.52833-.44629.52833l-4.79-.11133H957.918v6.21093h1.30957l5.93164-.11132q.47315,0,.47266.44531ZM952.042,598.18848c.01856.14941.02832.24218.02832.27929,0,.167-.20508.334-.61328.501l-1.36426.585a1.94134,1.94134,0,0,1-.55664.13867c-.167,0-.26953-.1289-.30664-.38965a42.45841,42.45841,0,0,0-1.92187-8.82812.83986.83986,0,0,1-.083-.30566c0-.14844.23144-.30665.69629-.47364l1.19726-.47363a2.287,2.287,0,0,1,.55664-.13965q.167,0,.30665.30664A48.47758,48.47758,0,0,1,952.042,598.18848Zm13.72949-8.21485a.96048.96048,0,0,1-.44531.668,3.98562,3.98562,0,0,0-.86328,1.61524q-.94776,2.92529-1.83789,5.01269-.27978.80859-.50195.80762a1.8929,1.8929,0,0,1-.61231-.25,10.03361,10.03361,0,0,0-1.78222-.55762,38.7379,38.7379,0,0,0,2.22753-6.73926,8.18353,8.18353,0,0,0,.27833-2.14453,25.50084,25.50084,0,0,1,3.03613,1.00293Q965.77148,589.667,965.77148,589.97363Zm31.33008,13.45117a8.03749,8.03749,0,0,0-1.6709,2.11622q-.39111.75146-.61328.75195a1.76875,1.76875,0,0,1-.75195-.44531,36.94386,36.94386,0,0,1-12.69824-19.57813v3.87109q0,4.65089.11133,9.91407.10986,3.56542.11132,4.81836a8.47615,8.47615,0,0,1-.30664,2.6455,2.96369,2.96369,0,0,1-1.16992,1.44825q-1.25244.89063-5.59766.97461a2.06673,2.06673,0,0,1-1.08593-.167,3.14612,3.14612,0,0,1-.334-.97558,6.50874,6.50874,0,0,0-1.1416-2.4502,31.22619,31.22619,0,0,0,3.7041.22266,3.47057,3.47057,0,0,0,2.28321-.501,2.31123,2.31123,0,0,0,.44531-1.6709v-7.88183a73.755,73.755,0,0,1-9.07813,6.46094,5.709,5.709,0,0,0-1.81054,1.36523.70657.70657,0,0,1-.585.38965.6984.6984,0,0,1-.61231-.334,25.25694,25.25694,0,0,1-1.72656-2.78515,22.294,22.294,0,0,0,3.09082-1.39258,71.75327,71.75327,0,0,0,10.72168-7.40723V580.89453h-4.90137l-7.71387.11133a.39322.39322,0,0,1-.44531-.44531v-2.28321a.3936.3936,0,0,1,.44531-.44531l7.71387.11133h11.91992l.38965-5.48633h-9.58008l-5.93164.11133a.39322.39322,0,0,1-.44531-.44531v-2.22852a.39322.39322,0,0,1,.44531-.44531l5.93164.11133h9.74707l.418-5.15235h-11.418l-6.32226.11133q-.47315,0-.47266-.44531V561.791c0-.29688.15723-.44629.47266-.44629l6.32226.1123h8.04786l6.34961-.1123a.44349.44349,0,0,1,.501.50195q-.11133.89063-.19433,2.14453-.14062,1.53076-.167,1.78223l-.8916,12.16992,7.07324-.11133q.50244,0,.502.44531v2.28321c0,.29785-.167.44531-.502.44531l-7.71386-.11133h-6.26563a48.401,48.401,0,0,0,3.92676,10.3877,43.51389,43.51389,0,0,0,4.90137-5.82032,10.27219,10.27219,0,0,0,1.25293-2.22753,16.51454,16.51454,0,0,1,2.47851,1.69824,1.319,1.319,0,0,1,.44531.80761q0,.27979-.64062.69629a7.70955,7.70955,0,0,0-1.69824,1.64356,41.97653,41.97653,0,0,1-5.31934,5.65332A32.36641,32.36641,0,0,0,997.10156,603.4248Zm-22.30664-12.95019a.84377.84377,0,0,1,.083.30664q0,.167-.501.55664l-1.1416.91895a2.98034,2.98034,0,0,1-.66894.39062q-.13917,0-.334-.39062a24.7883,24.7883,0,0,0-4.28906-6.79493.45583.45583,0,0,1-.167-.27832c0-.11132.167-.28711.50195-.52929l1.19727-.7793a1.13424,1.13424,0,0,1,.501-.27832q.167,0,.418.27832A33.515,33.515,0,0,1,974.79492,590.47461Z" transform="translate(-545.61914 -520.35805)"/><path class="cls-8" d="M1013.98926,561.457q-3.42627,18.51855-3.42578,27.98731a135.365,135.365,0,0,0,1.36425,17.68359l-3.98242.3623q-1.3081-12.69873-1.30859-18.15722a124.25946,124.25946,0,0,1,1.16992-15.01074q.91846-7.18506,2.14453-13.2002Zm23.11426,13.2832q.08349,11.27931.501,19.1045a29.47088,29.47088,0,0,1,10.05371,7.46289l-2.75781,3.42578a27.23541,27.23541,0,0,0-7.2959-6.65625q.05567,4.7915-2.86816,7.18555a10.20519,10.20519,0,0,1-6.71192,2.0332q-9.85839,0-9.85839-7.74219a6.45057,6.45057,0,0,1,2.95214-5.459,10.96843,10.96843,0,0,1,6.46094-1.83789,27.88332,27.88332,0,0,1,6.043.61328q-.36181-7.63038-.47363-17.96289-7.76953.25048-15.56739.167v-3.5918q6.90675.22266,15.51172-.05566v-10.499h4.06641q-.05714,3.42482-.05566,10.27637,3.564-.19482,9.1621-.752v3.5918Q1042.19922,574.46143,1037.10352,574.74023Zm-3.48145,22.02832a17.44877,17.44877,0,0,0-6.29395-1.1416,7.06992,7.06992,0,0,0-3.92675,1.03028,3.28168,3.28168,0,0,0-1.64258,2.89648q0,4.28907,6.1543,4.28809a5.13085,5.13085,0,0,0,4.53906-2.14356,7.46714,7.46714,0,0,0,1.16992-4.373Z" transform="translate(-545.61914 -520.35805)"/><path class="cls-8" d="M1054.63086,588.24707l3.7041,1.1416a12.84335,12.84335,0,0,0-2.17285,7.43555q0,6.48926,11.69727,6.48926a129.605,129.605,0,0,0,14.48046-.80762l.05567,4.28809q-6.68262.4453-14.5918.44628-7.91016,0-11.69726-2.53515-3.87012-2.61621-3.87012-7.99219A15.68973,15.68973,0,0,1,1054.63086,588.24707Zm.752-24.11719q3.53613.167,10.19239.167,6.79541,0,14.78808-.61231l.668,3.87109q-4.45605,1.75342-14.75977,9.13379l-2.56152-2.86816q1.22462-.8628,9.80274-6.21a76.01,76.01,0,0,1-9.19043.44531q-3.48193,0-8.93946-.22266Z" transform="translate(-545.61914 -520.35805)"/><path class="cls-8" d="M1095.83008,571.89941q-5.20752.167-9.41309.168v-3.59277q5.06837,0,10.22071-.167.91845-4.51173,1.47656-8.57813l4.20508.251q-.78076,4.67871-1.58789,8.21582,10.9995-.50244,18.01855-1.14258v3.64844q-9.21826.69726-18.88184,1.00293a80.9492,80.9492,0,0,1-6.15429,16.9043l.11133.05566q5.124-6.15528,15.23339-6.15527,6.37647,0,9.52442,4.14941a11.13958,11.13958,0,0,1,2.2832,7.01855,12.21736,12.21736,0,0,1-1.55957,6.48829,14.30766,14.30766,0,0,1-4.874,4.51171q-4.90137,2.97949-19.13184,3.14649l-1.002-3.70313q12.42041.0835,17.377-2.98047a10.95838,10.95838,0,0,0,3.84375-3.4248,7.97183,7.97183,0,0,0,1.002-4.20508,7.7206,7.7206,0,0,0-2.22753-5.793,7.4022,7.4022,0,0,0-5.34668-1.97754q-9.60792,0-16.43067,8.68946l-3.98242-1.83789A99.33016,99.33016,0,0,0,1095.83008,571.89941Z" transform="translate(-545.61914 -520.35805)"/><path class="cls-8" d="M1131.042,569.89453q-1.3374,13.28467-1.64355,17.34961l-.584,3.11914,1.3086-2.11621a20.06539,20.06539,0,0,1,6.85058-5.17969,17.382,17.382,0,0,1,7.24024-1.58789q6.29443,0,9.80273,3.3418a10.84012,10.84012,0,0,1,3.20313,8.21582,13.02255,13.02255,0,0,1-1.97754,7.49121,13.73116,13.73116,0,0,1-4.873,4.14941,27.7132,27.7132,0,0,1-8.52246,2.50586,75.44926,75.44926,0,0,1-9.71875.91993l-1.30859-3.81543q11.47264-.19484,16.59765-2.86914a10.40337,10.40337,0,0,0,4.26074-3.62012,10.02943,10.02943,0,0,0,1.19727-5.15137,7.302,7.302,0,0,0-2.50586-5.76465,8.73765,8.73765,0,0,0-5.93164-1.97754q-6.76758,0-12.03125,5.73633a16.54413,16.54413,0,0,0-3.11914,4.92969l-4.23242-.75195q.41748-8.187,2.00488-25.50977Zm1.19727-7.01758,1.64355-3.25879a88.88731,88.88731,0,0,1,17.73926,5.15235l-2.0332,3.53711A85.046,85.046,0,0,0,1132.23926,562.877Z" transform="translate(-545.61914 -520.35805)"/></g></g><g id="グループ_17" data-name="グループ 17"><rect id="長方形_36" data-name="長方形 36" class="cls-9" x="68.143" y="41.889" width="53.221" height="53.221" rx="7.096"/><path id="パス_10" data-name="パス 10" class="cls-2" d="M659.81214,586.25815a14.47,14.47,0,0,1-5.3,10.707c-5.51,4.885-14.241,10.91394-15.385,9.979-1.143-1.455,2.183-4.886-2.079-5.4-9.147-1.24805-16.112-7.692-16.112-15.281,0-8.524,8.835-15.592,19.542-15.592S660.12413,577.73411,659.81214,586.25815Z" transform="translate(-545.61914 -520.35805)"/><path id="パス_11" data-name="パス 11" class="cls-10" d="M652.32714,586.36216h-3.534m3.534-3.74194h-3.741v7.484h3.742m-12.786,0v-7.484l5.613,7.484v-7.484m-9.251,7.484v-7.484m-6.861,0v7.484h3.846" transform="translate(-545.61914 -520.35805)"/></g></g></g></svg>