<svg id="レイヤー_1" data-name="レイヤー 1" xmlns="http://www.w3.org/2000/svg" viewBox="0 0 654.55029 145.25391"><defs><style>.cls-1{isolation:isolate;}.cls-2{fill:#fefefe;}</style></defs><g id="ご相談をご利用になった_参加者のお声" data-name="ご相談をご利用になった 参加者のお声" class="cls-1"><g class="cls-1"><path class="cls-2" d="M662.96826,559.668a176.88794,176.88794,0,0,1-20.97656,1.40625q-15.55663,0-21.44531-3.10547t-5.88868-9.16992q0-7.64649,8.11524-13.79883l5.83008,4.36523q-5.56641,5.30274-5.56641,8.70118a4.53639,4.53639,0,0,0,.35156,1.83105,4.06281,4.06281,0,0,0,1.71387,1.626,14.71285,14.71285,0,0,0,4.96582,1.34765,67.56051,67.56051,0,0,0,9.14063.55664h2.13867a138.49075,138.49075,0,0,0,20.36133-1.582Zm-3.7793-37.207a23.51332,23.51332,0,0,0-4.48242,1.27441,45.238,45.238,0,0,0-5.03906,2.3291l-7.998,4.30664-3.60351-5.15625q1.11329-.46875,6.79687-3.16406-8.67261.0879-26.04492.70313l-.23437-7.26563q8.3203-.293,31.69921-.293,3.63209,0,6.03516.0293Zm5.30274-4.51172-4.18945,1.61133q-2.22657-5.53711-4.07227-9.05274l4.13086-1.55273Q662.67456,513.4082,664.4917,517.94922Zm8.08594-1.23047-4.16016,1.55273q-1.81714-4.48242-4.07227-8.99414l4.043-1.49414Q670.614,512.08985,672.57764,516.71875Z" transform="translate(-614.65771 -507.7832)"/><path class="cls-2" d="M683.564,542.61719a62.63844,62.63844,0,0,1-5.65429,8.64258l-4.98047-4.7461a53.08842,53.08842,0,0,0,5.58105-9.21387,66.1221,66.1221,0,0,0,4.2627-10.708h-7.26563v-6.35742H683.564V509.21875h7.73438v11.01563h5.74219v6.35742h-5.74219v3.66211a31.05584,31.05584,0,0,0,7.06055,6.73828l-3.7793,6.29883q-1.905-1.78711-3.28125-3.19336v22.26562H683.564Zm36.53321,16.49414H706.82568v2.666h-8.02734V511.12305h29.38477v50.65429h-8.08594Zm0-34.18945v-7.207H706.82568v7.207Zm-13.27149,13.44726h13.27149v-7.207H706.82568Zm0,14.32617h13.27149v-8.08593H706.82568Z" transform="translate(-614.65771 -507.7832)"/><path class="cls-2" d="M754.16943,523.89648H735.21436V518.1543h18.95507Zm-1.20117,35.88868h-10.3125v2.168h-6.29883V542.14844h16.61133Zm.17578-44.209H737.148v-5.09765H753.144Zm-.293,15.9961H737.20654V526.5918h15.64453Zm0,7.88085H737.20654v-5.03906h15.64453Zm-6.123,15.17579v-7.26563h-3.83789v7.26563Zm25.69336-3.75a20.16557,20.16557,0,0,1-6.78223,6.958,29.609,29.609,0,0,1-9.7998,4.11621l-2.63672-6.416q7.67505-1.9043,11.10351-5.61035a12.17113,12.17113,0,0,0,3.42774-8.51074v-8.70118H775.644v8.4668a12.17133,12.17133,0,0,0,2.417,5.71289,16.76539,16.76539,0,0,0,6.35742,5.30274,30.62535,30.62535,0,0,0,7.80761,2.84179l-3.31054,6.79688Q777.57763,559.02344,772.42139,550.87891Zm.05859-24.082q-4.07226,7.47069-16.64062,10.60546l-2.51954-6.24023q7.17774-1.46484,10.88379-4.98047a11.252,11.252,0,0,0,3.70606-8.4668v-8.4375h7.67578v8.52539a11.4436,11.4436,0,0,0,4.96582,7.88086,29.41226,29.41226,0,0,0,11.41113,4.6875l-3.51562,6.6211Q777.57691,534.00391,772.48,526.79688Zm-6.85547,11.63085a42.36775,42.36775,0,0,1-2.44629,6.82618,39.61224,39.61224,0,0,1-3.2959,6.18164l-6.24023-2.13867a61.7313,61.7313,0,0,0,5.74219-12.07032Zm.49805-24.16992a40.44085,40.44085,0,0,1-5.71289,12.2168l-6.06446-2.08008a57.05723,57.05723,0,0,0,5.47852-11.2793Zm24.75586-.38086A57.6155,57.6155,0,0,1,783.437,525.332l-5.625-2.87109a40.62016,40.62016,0,0,0,6.18164-10.66406Zm-.82031,24.84375a94.21661,94.21661,0,0,1-6.79688,10.459l-5.44922-3.252a56.19953,56.19953,0,0,0,5.625-9.60937Z" transform="translate(-614.65771 -507.7832)"/><path class="cls-2" d="M832.83154,552.34375h-8.34961l.0293-11.51367q-10.459,5.127-10.459,9.58008,0,4.42383,10.07812,4.42382l3.252-.02929a148.56349,148.56349,0,0,0,19.92188-.9668l.41016,7.32422q-8.23316.791-16.14258.791-15.20508,0-20.39063-2.59277t-5.18554-8.01269q0-8.90625,17.02148-17.49024a2.73271,2.73271,0,0,0-2.28516-.9668,16.78068,16.78068,0,0,0-6.87011,1.9629,42.5375,42.5375,0,0,0-9.27246,6.4746q-3.575,3.16407-5.127,4.27735l-5.09765-5.50781a54.19567,54.19567,0,0,0,15.41015-16.875H797.26514V516.2793h15.55664a50.07877,50.07877,0,0,0,1.8457-6.65039l8.61328.46875q-.82031,3.63281-1.66992,6.18164h19.33594v6.94336H818.79834q-.76245,1.52343-2.8125,4.6875a17.9255,17.9255,0,0,1,5.625-.9668q5.97655,0,8.61328,3.69141,3.80787-1.64062,16.05469-6.44532l3.42773,6.97266q-5.77221,1.96288-17.22656,6.15234a35.8345,35.8345,0,0,1,.293,4.7168Z" transform="translate(-614.65771 -507.7832)"/><path class="cls-2" d="M902.96826,559.668a176.88794,176.88794,0,0,1-20.97656,1.40625q-15.55663,0-21.44531-3.10547t-5.88868-9.16992q0-7.64649,8.11524-13.79883l5.83008,4.36523q-5.56641,5.30274-5.56641,8.70118a4.53639,4.53639,0,0,0,.35156,1.83105,4.06281,4.06281,0,0,0,1.71387,1.626,14.71285,14.71285,0,0,0,4.96582,1.34765,67.56051,67.56051,0,0,0,9.14063.55664h2.13867a138.49075,138.49075,0,0,0,20.36133-1.582Zm-3.7793-37.207a23.51332,23.51332,0,0,0-4.48242,1.27441,45.238,45.238,0,0,0-5.03906,2.3291l-7.998,4.30664-3.60351-5.15625q1.11329-.46875,6.79687-3.16406-8.67261.0879-26.04492.70313l-.23437-7.26563q8.3203-.293,31.69921-.293,3.63209,0,6.03516.0293Zm5.30274-4.51172-4.18945,1.61133q-2.22657-5.53711-4.07227-9.05274l4.13086-1.55273Q902.67456,513.4082,904.4917,517.94922Zm8.08594-1.23047-4.16016,1.55273q-1.81714-4.48242-4.07227-8.99414l4.043-1.49414Q910.614,512.08985,912.57764,516.71875Z" transform="translate(-614.65771 -507.7832)"/><path class="cls-2" d="M928.28076,543.23242a56.9809,56.9809,0,0,1-10.2539,11.2793l-4.7461-5.09766a53.33732,53.33732,0,0,0,7.38281-7.9834,55.065,55.065,0,0,0,6.09375-9.59472h-10.752v-6.6211h12.27539v-6.21093q-6.32812.82031-10.78125,1.17187l-1.37695-6.35742a139.13578,139.13578,0,0,0,14.13574-1.65527,68.82334,68.82334,0,0,0,12.55371-2.94434l3.7793,6.09375a67.73343,67.73343,0,0,1-10.3711,2.49023v7.41211h10.07813v6.6211H936.22021v.14648a38.93933,38.93933,0,0,0,10.54688,9.19922l-4.24805,6.35742a46.96906,46.96906,0,0,1-6.29883-5.30273v20.18555h-7.93945Zm27.68555,5.50781h-7.5586V512.5h7.5586Zm12.33349,6.97266a5.38118,5.38118,0,0,1-2.00683,4.14551,6.452,6.452,0,0,1-4.35059,1.77246H954.1499l-1.31836-7.23633h5.50782q2.168,0,2.168-1.81641v-43.0664h7.79248Z" transform="translate(-614.65771 -507.7832)"/><path class="cls-2" d="M1019.07129,544.19922h-11.45508v17.31445H999.208V544.19922H987.60645a37.26743,37.26743,0,0,1-7.93946,18.33984l-6.18164-4.13086q6.59179-8.93554,6.5918-24.3164V510.83008h47.34375v44.26758a5.67047,5.67047,0,0,1-2.13867,4.46777,7.62156,7.62156,0,0,1-5.127,1.83105h-8.46679l-1.20118-7.55859h6.67969q1.90429,0,1.9043-1.43555Zm-30.84961-6.6211H999.208v-6.94335H988.33887v2.63671Q988.33887,535.20509,988.22168,537.57812ZM999.208,517.53906H988.33887v6.67969H999.208Zm19.86328,6.67969v-6.67969h-11.45508v6.67969Zm-11.45508,13.35937h11.45508v-6.94335h-11.45508Z" transform="translate(-614.65771 -507.7832)"/><path class="cls-2" d="M1049.97949,512.5q-3.7207,13.44726-3.7207,22.64648a91.14333,91.14333,0,0,0,3.28125,24.4629l-8.08594,1.8457a95.24273,95.24273,0,0,1-3.16406-23.93555,107.27893,107.27893,0,0,1,3.457-26.16211Zm37.85156,46.78711q-7.17772.67383-12.27539.67383-12.86132,0-17.54882-2.97364a9.47792,9.47792,0,0,1-4.6875-8.48144q0-6.35742,6.00586-12.53906l6.4746,3.457q-4.7168,4.39454-4.71679,8.81836,0,2.08008,2.46094,3.2959t10.19531,1.21582q3.92578,0,13.79883-.84961Zm-.64453-36.709-2.46093-.02929q-3.8379-.05859-12.74414.14648t-17.25586.791v-7.14844q19.80468-.9668,27.42187-.9668,3.04688,0,5.03906.17579Z" transform="translate(-614.65771 -507.7832)"/><path class="cls-2" d="M1114.96,510.88867q-.20508,4.6875-.67383,8.584h12.77344v7.00195h-13.82812A67.14986,67.14986,0,0,1,1099.96,556.29883l-6.416-4.62891q7.96875-9.78516,11.33789-25.19531h-9.02344v-7.00195h10.2539a83.099,83.099,0,0,0,.67383-8.84766Zm36.12305,42.15821-4.33594,6.5039a69.58877,69.58877,0,0,0-9.78516-7.06055q0,5.06836-3.16406,7.5293t-10.42969,2.46094a17.173,17.173,0,0,1-9.72656-2.57813,8.1373,8.1373,0,0,1-3.86719-7.14843,8.96821,8.96821,0,0,1,4.10157-7.749,17.09742,17.09742,0,0,1,10.01953-2.85644,35.7709,35.7709,0,0,1,4.98047.32226V527.26562h8.08593V544.668A73.35607,73.35607,0,0,1,1151.083,553.04688Zm-22.207-4.10157a23.92439,23.92439,0,0,0-4.98047-.498,9.96434,9.96434,0,0,0-4.64356,1.01074,3.08921,3.08921,0,0,0-1.94824,2.79785q0,3.69141,6.82617,3.69141,4.74611,0,4.7461-3.42774Zm22.61718-20.24414-6.416,4.86328a87.58042,87.58042,0,0,0-8.4668-8.49609,64.51943,64.51943,0,0,0-8.93555-7.00195l4.92188-5.44922a58.6013,58.6013,0,0,1,9.68262,7.0166A83.20846,83.20846,0,0,1,1151.49316,528.70117Z" transform="translate(-614.65771 -507.7832)"/><path class="cls-2" d="M1168.28027,560.60547l-1.31836-6.29883a116.645,116.645,0,0,0,15.9961-1.56738,20.19651,20.19651,0,0,0,9.52148-4.2041,10.05126,10.05126,0,0,0,3.60352-8.02735,9.78548,9.78548,0,0,0-3.06153-7.52929,11.26685,11.26685,0,0,0-7.98339-2.8418q-6.76758,0-27.71485,3.95508l-1.14258-6.5918,15.70313-2.31445a106.767,106.767,0,0,1,13.27148-1.34766q8.5547,0,13.667,4.36523t5.1123,12.12891Q1203.93457,560.19531,1168.28027,560.60547Z" transform="translate(-614.65771 -507.7832)"/><path class="cls-2" d="M1235.89746,509.74609q.08789,1.084.08789,3.75,0,1.99219-.11719,3.89649h19.36524v7.03125h-20.15625a83.06941,83.06941,0,0,1-4.86328,20.97656q-4.043,11.25-8.93555,17.54883l-6.79687-4.01367a64.49365,64.49365,0,0,0,7.85156-15.92285,86.67133,86.67133,0,0,0,4.45312-18.58887h-10.2539v-7.03125h10.752q.23438-4.71679.23437-7.64649Zm33.31055,50.39063a89.69372,89.69372,0,0,1-13.88672.9668,71.70011,71.70011,0,0,1-10.59082-.68848,12.85055,12.85055,0,0,1-7.16309-3.17871,7.87771,7.87771,0,0,1-2.60742-5.88867q0-4.51173,4.80469-9.31641l6.24023,2.92969q-2.90038,3.54492-2.90039,5.68359a1.93267,1.93267,0,0,0,1.05469,1.69922,11.89223,11.89223,0,0,0,4.248,1.01074,64.0694,64.0694,0,0,0,7.23632.36621,75.54763,75.54763,0,0,0,13.1543-1.14258Zm-1.55274-32.57813-.41015,6.97266q-1.66992-.08788-3.48633-.08789-9.93164,0-24.60938,1.34766l-.52734-6.97266a221.34809,221.34809,0,0,1,24.4043-1.34766Q1265.83887,527.4707,1267.65527,527.55859Z" transform="translate(-614.65771 -507.7832)"/></g><g class="cls-1"><path class="cls-2" d="M797.90967,622.77344q-9.63941,9.3457-27.53906,14.23828l-2.57813-4.86328a65.26435,65.26435,0,0,0,12.09961-4.77539,61.10991,61.10991,0,0,0,11.2793-7.17774h-4.7461q-7.61792,6.47461-20.18554,10.86914l-3.19336-5.5664a57.92461,57.92461,0,0,0,12.09961-5.30274h-8.90625v-5.97656h15.73242a26.06106,26.06106,0,0,0,1.90429-2.57813l-13.9746.41016-.90821-6.29883q1.49415.0293,3.51563.0293,2.05005,0,4.6289-.0293a58.66609,58.66609,0,0,0,5.41993-8.23242l7.67578,1.49414q-1.55347,2.25586-4.62891,6.5625,8.40821-.23437,15.41016-.58594l-3.16407-2.7832,6.65039-3.31055q7.03125,5.65431,13.2129,11.10352l-7.08985,3.95508q-1.40625-1.49415-3.57422-3.48633-4.71753.41016-14.47265.84961a32.26011,32.26011,0,0,1-1.61133,2.90039h29.26758v5.97656H809.07178a53.39505,53.39505,0,0,0,13.623,5.30274l-4.33593,6.709a47.46847,47.46847,0,0,1-11.32325-4.87793,48.35881,48.35881,0,0,1-9.47753-7.13379h-3.7793Zm8.99414,7.08984A76.61174,76.61174,0,0,1,792.27,638.24219a109.56335,109.56335,0,0,1-20.46387,6.21093l-2.46094-5.36132q20.53712-4.7168,31.9336-13.916Zm9.55078,7.38281q-5.33277,4.48244-15.84961,8.70118-10.51831,4.21875-27.77344,6.47461l-2.168-5.94727a119.98,119.98,0,0,0,22.82227-5.56641q10.75122-3.80859,16.8457-8.584Z" transform="translate(-614.65771 -507.7832)"/><path class="cls-2" d="M840.41943,616.85547q-.35156,13.27148-3.64746,22.06055t-7.66113,13.44726l-5.77148-4.13086a37.88314,37.88314,0,0,0,6.73828-13.5791,67.37641,67.37641,0,0,0,2.54882-17.79785h-6.5039v-6.62109h6.5332V599.33594h8.20313v10.89844h12.1875v9.3164q0,10.10742-.16114,14.707a61.13035,61.13035,0,0,1-.82031,8.36426,17.11173,17.11173,0,0,1-1.31836,4.86328,7.46578,7.46578,0,0,1-1.93359,2.06543,8.85883,8.85883,0,0,1-3.00293,1.4502,25.5841,25.5841,0,0,1-6.03516.4834q-1.37768,0-3.16406-.0293l-1.02539-7.11914h5.03906a3.97257,3.97257,0,0,0,2.54883-.791q.99535-.791,1.49414-5.6543a115.62494,115.62494,0,0,0,.49805-11.57226l-.0293-9.46289Zm29.79493,30.58594h-6.12305v4.01367h-7.793V604.05273h21.82617v46.9336h-7.91015Zm-6.12305-6.709h6.12305v-30.293h-6.12305Z" transform="translate(-614.65771 -507.7832)"/><path class="cls-2" d="M927.519,649.72656h-24.3164v2.168h-8.20313V632.67578q-3.01758,1.17188-8.99414,3.19336l-2.7832-6.47461a167.94942,167.94942,0,0,0,22.64648-9.43359h-19.6289v-6.35742h17.7539v-3.95508H889.34521V603.4668h14.64844v-4.45313h8.40821v4.45313h12.59765v3.75a63.59241,63.59241,0,0,0,6.88477-6.88477l6.79687,3.98438a67.04592,67.04592,0,0,1-9.873,9.28711h11.66015v6.35742H918.70068q-3.6914,2.25585-6.67968,3.95508h23.75976v28.0371H927.519Zm0-15.791v-4.13086h-24.3164v4.18945Zm-24.3164,9.72656H927.519v-4.42383h-24.3164Zm13.44726-30.05859q2.959-1.99219,5.41992-3.95508h-9.668v3.95508Z" transform="translate(-614.65771 -507.7832)"/><path class="cls-2" d="M971.1416,651.74805l-2.168-7.32422q11.63087-1.28907,17.49024-5.36133t5.85937-12.1582q0-6.76758-4.21875-10.8545t-11.68945-4.79q-.61524,16.40625-6.1377,26.58691t-13.90088,10.18066q-5.44921,0-8.81835-5.1416a20.97711,20.97711,0,0,1-3.36915-11.76269v-.73243q0-10.13672,8.15918-17.94433,8.15846-7.80762,20.58057-8.39356h1.20117q11.86524,0,19.49707,6.02051t7.63184,16.36231q0,11.33789-7.69043,17.7539T971.1416,651.74805Zm-2.959-39.63867a20.78708,20.78708,0,0,0-11.20557,6.91406,17.73328,17.73328,0,0,0-4.61426,11.83594,16.19514,16.19514,0,0,0,1.14258,6.15234q1.14258,2.8125,3.19336,2.8125,4.13086,0,7.49951-8.02734Q967.56739,623.76952,968.18262,612.10938Z" transform="translate(-614.65771 -507.7832)"/><path class="cls-2" d="M1031.49316,649.22852l1.99219-6.82618a18.874,18.874,0,0,0,8.05664,1.99219,10.3826,10.3826,0,0,0,6.73828-2.02148,6.94053,6.94053,0,0,0,2.49024-5.71289,7.26354,7.26354,0,0,0-3.54492-6.5625q-3.54493-2.22657-9.84375-2.22657a46.89872,46.89872,0,0,0-8.291.791v16.14258a6.24278,6.24278,0,0,1-2.82715,5.41992,12.11443,12.11443,0,0,1-7.07519,1.96289,14.8243,14.8243,0,0,1-9.81446-3.36914,10.8045,10.8045,0,0,1-4.043-8.70117,13.42923,13.42923,0,0,1,4.08692-9.50684,28.58922,28.58922,0,0,1,11.14746-6.81152V616.416H1006.7666v-6.88477h13.79883v-9.31641h8.52539v9.31641h14.26758V616.416h-14.26758v5.21484a51.83771,51.83771,0,0,1,8.17383-.64453q9.84375,0,15.98144,3.999a12.83158,12.83158,0,0,1,6.1377,11.41113q0,7.17774-4.61426,11.35254t-12.31933,4.17481A22.11324,22.11324,0,0,1,1031.49316,649.22852Zm-10.92773-17.959q-7.55859,3.63282-7.55859,8.61328a4.34125,4.34125,0,0,0,1.74316,3.51563,6.31384,6.31384,0,0,0,4.08691,1.40625,1.50246,1.50246,0,0,0,1.72852-1.66992Zm41.16211-15.58594-6.29883,4.92188a88.6738,88.6738,0,0,0-7.57324-7.80762,82.49937,82.49937,0,0,0-8.27637-7.13379l5.127-5.15625a56.54974,56.54974,0,0,1,8.77442,6.69434A78.45225,78.45225,0,0,1,1061.72754,615.68359Z" transform="translate(-614.65771 -507.7832)"/><path class="cls-2" d="M1117.24512,639.58984h-8.291V637.832h-32.31445a29.82807,29.82807,0,0,1-7.23633,15.20508l-6.47461-4.21875a23.27607,23.27607,0,0,0,3.47168-5.81543,29.717,29.717,0,0,0,2.00684-6.34277,37.6645,37.6645,0,0,0,.52734-6.67969v-9.11133h48.31055Zm.05859-21.79687h-48.83789v-5.918h19.98047v-3.42773h-22.88086V602.207h22.88086v-3.54492h8.37891V602.207H1119.999v6.24024H1096.8252V611.875h20.47851Zm-28.44726,8.584H1077.167v5.27344h11.68946Zm20.09765,5.27344V626.377h-12.36328v5.27344Z" transform="translate(-614.65771 -507.7832)"/></g></g></svg>