<svg id="レイヤー_1" data-name="レイヤー 1" xmlns="http://www.w3.org/2000/svg" viewBox="0 0 778.46973 41.43416"><defs><style>.cls-1{fill:#fdd835;}.cls-2{isolation:isolate;}.cls-3{fill:#2e2e2e;}</style></defs><g id="グループ_296" data-name="グループ 296"><rect id="長方形_160" data-name="長方形 160" class="cls-1" x="107.28613" y="27.43416" width="237.72397" height="14"/><g id="充実したフォローアップで手堅く報酬を獲得しましょう_" data-name="充実したフォローアップで手堅く報酬を獲得しましょう " class="cls-2"><g class="cls-2"><path class="cls-3" d="M590.38379,593.794c-1.05029,6.71972-4.16992,9.68945-9.53955,11.18945l-2.13037-2.49024c5.64013-.92968,8.36963-3.26953,8.96972-10.34961l2.76026.54c.47949.08985.77978.36036.77978.57032S591.01367,593.7041,590.38379,593.794Zm6.65967-10.08057h-5.8501l.90039.36035c.1499.05957.68994.29981.68994.62988,0,.48047-.93017.54-1.20019.57032a23.382,23.382,0,0,1-2.31006,3.89941c.84033-.05957.99023-.08984,2.73-.12012,1.91992-.02929,4.37988-.17968,6.56982-.2998a16.265,16.265,0,0,0-3.2998-2.63965l2.1001-1.71a34.9872,34.9872,0,0,1,6.71972,6.47949l-2.28027,2.28076a21.822,21.822,0,0,0-1.37988-2.22021c-1.85987.14941-2.90967.21-8.60938.50976-2.49023.14942-3.12012.17969-8.73.50977-.08984.09033-.48.45068-.54.54053-.32959.26953-.44971.26953-.50976.26953-.29981,0-.33008-.41992-.35987-.68946l-.33008-2.91064c1.02.06055,2.12989.12012,3.33008.12012.32959,0,1.01953-.03028,1.70947-.08985a29.13037,29.13037,0,0,0,2.58008-5.49023h-.66015c-2.93946,0-5.90967.06055-8.81934.24023v-2.93945c3.02979.17969,7.46973.23926,8.81934.23926h2.93994c-.02979-1.73926-.11963-2.93946-.21-3.68946l3.56982.36036c.18018,0,.57031.05957.57031.41992,0,.41992-.54.62988-1.02.80957-.03027.36035-.06005.87012-.06005,1.37988v.71973h2.93994c2.96972,0,5.93945-.05957,8.90966-.23926v2.93945C602.11328,583.71338,597.37354,583.71338,597.04346,583.71338Zm3.77978,20.60986h-3.65967c-3.48,0-3.78027-1.62012-3.78027-3.71972v-3.99024a36.8925,36.8925,0,0,0-.1499-4.40918l3.08984.23926c.39014.03027.93018.06055.93018.48047,0,.45019-.6001.59961-.96.69043-.03028.65918-.08985,1.58984-.08985,3.02929v3.57032c0,1.19922.08985,1.55957,1.49951,1.55957h3c1.26026,0,1.58985,0,2.00977-.99024a23.76178,23.76178,0,0,0,.84033-3.08984l2.66992,1.91992C604.603,604.26367,604.00293,604.32324,600.82324,604.32324Z" transform="translate(-578.71387 -567.29883)"/><path class="cls-3" d="M634.66309,604.95312c-6.80957-1.0498-10.55957-5.18945-11.81983-7.73925a12.63821,12.63821,0,0,1-4.43945,5.27929,16.258,16.258,0,0,1-7.25977,2.58008l-1.77-2.91015c2.16016-.0293,7.49952-.21,10.64942-5.42969H618.5835c-1.43995,0-5.33985.06055-8.15967.18066v-2.52051c2.52.08985,6.23974.1504,8.15967.1504h2.37011a10.28431,10.28431,0,0,0,.33008-2.28028h-1.77c-1.91992,0-4.10986,0-5.87988.17969v-2.69971c2.37012.24024,5.66992.24024,5.87988.24024h1.89014v-2.52051h-1.89014c-1.08008,0-4.0498.06055-6.17969.17969v-2.51953c1.91993.08984,4.70948.15039,6.17969.15039h1.77c-.03027-.66016-.06006-1.16993-.1499-2.04l3.26953.2998c.24023.03027.4502.03027.4502.36035,0,.29981-.56983.65918-.78028.7793a5.80254,5.80254,0,0,1-.02978.60059h1.6499c1.31982,0,4.10986-.06055,6.17969-.15039v2.51953c-1.88965-.08985-4.94971-.17969-6.17969-.17969h-1.6499c-.02979.41992-.02979,2.16016-.02979,2.52051h1.34961c2.04,0,4.08008-.09082,6.08984-.24024v2.69971c-1.71-.11914-2.75976-.17969-6.08984-.17969h-1.43994a19.01829,19.01829,0,0,1-.27,2.28028h3.12012c1.73974,0,5.45947-.06055,8.15967-.1504v2.52051c-2.49024-.09082-6.54-.18066-8.15967-.18066H625.6333c1.16992,1.44043,3.83984,4.62012,11.00977,5.49023Zm-2.06983-18.35986a33.65374,33.65374,0,0,0,.1499-3.89941H612.374a37.92835,37.92835,0,0,0,.12012,3.89941h-3.06006a11.94666,11.94666,0,0,0,.21-3.0293,33.10746,33.10746,0,0,0-.12011-3.38964c1.98.23925,5.93994.23925,8.06982.23925h3.50977c-.02979-1.94921-.02979-2.15918-.06006-2.63964l2.93994.21c.6001.03027.83984.12011.83984.36035,0,.2998-.48.68945-.77978.86914,0,.48047,0,.51074-.02979,1.20019h3.17969c2.48975,0,6.26953,0,8.63965-.17968a21.88778,21.88778,0,0,0-.12012,2.96972,24.51894,24.51894,0,0,0,.12012,3.38965Z" transform="translate(-578.71387 -567.29883)"/><path class="cls-3" d="M654.46338,600.63379a11.79011,11.79011,0,0,1-6.92969,2.66992,6.9837,6.9837,0,0,1-5.27978-2.40039c-1.34961-1.62012-1.46973-3.0293-1.46973-5.66992,0-1.5293.27-8.24951.27-9.6294a56.59664,56.59664,0,0,0-.33008-6.81054l3.41992.48047c.71973.08984,1.02.15039,1.02.54,0,.26954-.08984.33008-.8999.87012-.09033.71973-.18018,1.5293-.27,2.69922-.1499,2.2207-.35986,9.66065-.35986,10.86084,0,2.84961.11963,3.68945.80957,4.61914a4.51168,4.51168,0,0,0,3.48,1.71,7.97853,7.97853,0,0,0,5.5498-2.66992,16.27418,16.27418,0,0,0,3.23975-5.75977l2.33984,2.19043A18.74336,18.74336,0,0,1,654.46338,600.63379Z" transform="translate(-578.71387 -567.29883)"/><path class="cls-3" d="M676.334,585.90381a37.2746,37.2746,0,0,1-5.66992,1.22949c-.41992,1.23047-2.18994,6.72022-2.60986,7.80029-1.46973,3.90039-2.64014,6.41993-3.68994,8.63965l-3.08985-1.10937a48.20274,48.20274,0,0,0,6.35987-14.93994,16.34744,16.34744,0,0,1-2.8501.21c-.96,0-1.6499-.06055-2.3999-.12012l-.02979-2.75977a27.138,27.138,0,0,0,3.38965.26954,17.7472,17.7472,0,0,0,2.54981-.21,48.682,48.682,0,0,0,.99023-6.44921l3.44971.50976c.51025.08984.75.14942.75.54,0,.38965-.23975.50977-.96.66016-.54,1.88964-.66016,2.459-1.13965,4.3789a17.1764,17.1764,0,0,0,5.15967-1.52929Zm7.16944,17.45947c-1.16992.06055-2.18994.06055-2.96973.06055-6.11963,0-7.22949-.4502-8.18945-1.05078a2.2114,2.2114,0,0,1-1.08008-1.76953c0-1.83008,1.46973-3.4502,2.04-4.04981l2.21973,1.11035c-.66016.62989-1.52979,1.499-1.52979,2.12989,0,1.22949,3.83984,1.22949,4.94971,1.22949a15.37214,15.37214,0,0,0,5.06982-.50977Zm.57031-12.18017a12.48823,12.48823,0,0,0-4.23-.50977,22.9776,22.9776,0,0,0-5.27979.48047l.17969-2.55078c.99024-.05957,2.43018-.14942,4.53028-.14942,2.06982,0,3.41943.05957,4.82959.14942Z" transform="translate(-578.71387 -567.29883)"/></g><g class="cls-2"><path class="cls-3" d="M717.83887,576.77734c-1.31983,5.2793-2.75928,11.03809-8.67823,17.31739a30.09126,30.09126,0,0,1-11.11816,7.39843l-3.67969-3.43945c3.51953-.87988,10.3584-2.63965,15.95752-11.99805a21.24987,21.24987,0,0,0,3.43946-10.03808h-9.5586c-2.23926,0-10.19824.35937-13.07763.55957v-3.959c2.67968.24024,7.91845.32032,10.11816.32032h6.71924a53.179,53.179,0,0,0,5.63867-.32032,2.518,2.518,0,0,0,1.83984-.91992l3.55957,2.83985C718.71875,575.09766,718.519,575.458,717.83887,576.77734Z" transform="translate(-578.71387 -567.29883)"/><path class="cls-3" d="M743.87988,585.93555h-3.35937v2.7998c0,1.79981.31982,10.27832.31982,11.39844,0,3.11914-2.6792,3.71875-4.83887,3.71875h-1.63964l-1.52-3.55957a17.1365,17.1365,0,0,0,2.83984.32031c1.51953,0,1.83936-.67969,1.83936-2.11914v-9.79883a27.79542,27.79542,0,0,1-4.999,5.63867,29.57173,29.57173,0,0,1-6.8789,4.63965l-2.4795-2.55957a24.11338,24.11338,0,0,0,6.75879-3.959,26.064,26.064,0,0,0,5.83887-6.51953h-4.75879c-1.87988,0-4.51953.08007-7.03906.28027v-3.23926c2.35986.2002,4.6792.2793,7.03906.2793h6.43848c-.03955-1.999-.11963-4.83887-.35987-6.79883l3.27979.28027c.99951.08008,1.27978.28028,1.27978.71973a.49277.49277,0,0,1-.20019.40039l-.52.51953c-.35986.48047-.3999,3.31934-.3999,3.999v.87988h3.35937a30.94819,30.94819,0,0,0,4.4795-.2793v3.23926A31.77337,31.77337,0,0,0,743.87988,585.93555Z" transform="translate(-578.71387 -567.29883)"/><path class="cls-3" d="M778.2002,599.5332a18.14014,18.14014,0,0,0,.27978-2.39941H759.00342c0,.59961,0,1.63965.08008,2.31933h-4.55957a42.17067,42.17067,0,0,0,.32031-5.19824c.03955-3.87988.03955-4.31933.03955-4.75976v-8.31836c0-1.24024-.11963-7.35938-.19971-8.39844,2.35938.23926,7.35889.31934,9.83838.31934h8.59863c2.83936,0,7.07862-.04,9.83838-.19922-.16015,2.0791-.24023,6.79883-.24023,9.03808v7.91895c0,.7998.12012,4.23926.12012,4.959a25.588,25.588,0,0,0,.35986,4.71875Zm.43994-22.75586H758.96338v16.79688h19.67676Z" transform="translate(-578.71387 -567.29883)"/><path class="cls-3" d="M808.40137,588.01562h-9.15869c-.52,0-6.519,0-10.51807.4795v-4.35938a76.4518,76.4518,0,0,0,10.51807.48047h9.15869a83.73023,83.73023,0,0,0,10.51806-.48047v4.35938A94.68872,94.68872,0,0,0,808.40137,588.01562Z" transform="translate(-578.71387 -567.29883)"/><path class="cls-3" d="M853.92041,578.377c-3.51953,4.91895-5.03955,7.03907-8.79883,10.23828l-3.15918-2.83984c3.75928-2.23926,6.71875-5.79883,9.23828-10.11816H835.2832c-3.07959,0-7.83838.12011-11.75781.28027v-3.63965c3.15918.2002,7.99854.28027,11.55811.28027h9.5581a68.68185,68.68185,0,0,0,9.19873-.75976l2.95947,3.63965C855.91992,575.85742,855.64014,575.97754,853.92041,578.377ZM841.3623,580.0166c-.64013,6.83887-1.3999,14.87793-10.63818,21.83692l-3.91943-2.51954a21.61805,21.61805,0,0,0,7.39892-7.03906c2.31934-3.59961,2.91944-7.11914,2.91944-11.71777,0-.87988,0-1.52051-.08008-2.87988l4.31933.43945c.87989.08008,1.07959.60058,1.07959.87988C842.44189,579.417,842.32227,579.457,841.3623,580.0166Z" transform="translate(-578.71387 -567.29883)"/><path class="cls-3" d="M863.76416,588.45508a26.96382,26.96382,0,0,0-3.51953-6.31836l2.99951-1a30.301,30.301,0,0,1,3.51953,6.19922Zm21.1167-6.51856a1.39542,1.39542,0,0,0-.76025.4795c-.11963.20019-1.27979,4.08007-1.55957,4.83984-4.03907,10.3584-10.03809,13.63769-14.47754,15.83691l-2.63965-2.43945A23.04915,23.04915,0,0,0,876.3623,592.375c3.43946-4.91992,4.15918-9.959,4.63916-12.958l3.11915,1.16016c.80029.2793,1.24023.55957,1.24023.87988C885.36084,581.73633,885.16064,581.85645,884.88086,581.93652ZM871.603,586.73535a21.4135,21.4135,0,0,0-3.39942-6.39844l2.99951-1.04a26.86108,26.86108,0,0,1,3.39942,6.47851Z" transform="translate(-578.71387 -567.29883)"/><path class="cls-3" d="M916.12109,579.7373c-2.11963,6.958-3.07959,9.958-6.79882,14.67676a28.87148,28.87148,0,0,1-13.2378,9.63867l-3.63965-3.39941c12.11817-2.87988,18.35694-13.39746,19.55664-21.7168H897.52393a75.15878,75.15878,0,0,0-8.19825.44043v-4.15918a55.83117,55.83117,0,0,0,8.27832.39942h8.1587c.7998,0,5.23925-.04,5.959-.15918.7998-.12012.83984-.16016,1.99951-.91992l3.55957,2.91894A4.69251,4.69251,0,0,0,916.12109,579.7373Zm3.959-3.75976a4.3394,4.3394,0,0,1,0-8.67871,4.3394,4.3394,0,1,1,0,8.67871Zm-.03955-6.23926a1.87757,1.87757,0,0,0-1.87989,1.87988,1.97149,1.97149,0,0,0,1.95948,2,1.94046,1.94046,0,0,0-.07959-3.87988Z" transform="translate(-578.71387 -567.29883)"/></g><g class="cls-2"><path class="cls-3" d="M945.80322,582.93408a14.71208,14.71208,0,0,0-9.02929,6.80957,8.9019,8.9019,0,0,0-1.47022,4.52979c0,3.69043,3.8999,6.12011,8.51953,6.48047l-.98974,2.999c-9.4795-1.61914-10.49952-7.13965-10.49952-9.47949,0-1.67969.6001-6.35987,7.55957-11.1001a87.61084,87.61084,0,0,0-14.12939,1.98047l-.4502-3.41992c4.85987.14941,17.2793-.83985,23.33936-2.33985v3.14942A10.38974,10.38974,0,0,0,945.80322,582.93408Zm1.04981,8.42969a12.43177,12.43177,0,0,0-3.47949-2.33984l1.1997-1.65039a8.07965,8.07965,0,0,1,3.6001,2.40039Zm3.06006-3.12012a13.60758,13.60758,0,0,0-3.75-2.5498l1.32031-1.56055a9.65745,9.65745,0,0,1,3.59961,2.37012Z" transform="translate(-578.71387 -567.29883)"/></g><g class="cls-2"><path class="cls-3" d="M986.11816,590.65527c-1.67968-.04-2.999-.08007-5.999-.08007h-4.19922v6.959c0,3.31934,0,3.67871-.31933,4.59863-.72071,1.91992-2.67969,2.32031-5.87989,2.32031a10.48411,10.48411,0,0,1-2.19922-.16015l-2.04-4.15918a28.55969,28.55969,0,0,0,4.55957.31933c1.67968,0,1.67968-.51953,1.67968-2.11914V590.5752h-4.39941c-4.11914,0-4.63867,0-7.83838.12011-1.95947.08008-2.47949.08008-3.479.08008v-4.08008c2.71923.12012,7.918.32031,11.31738.32031h4.39941v-4.8789h-3.11914c-1.20019,0-6.15918.16016-9.3584.43945v-3.91894c1.79981.12011,7.87891.24023,9.3584.24023h3.11914v-4.55957a119.91989,119.91989,0,0,1-12.71728.32031l-1.91992-3.87988c1.04.08008,3.75927.28027,7.67822.28027,10.23828,0,14.918-1.32031,19.5166-3.12011l2.63965,2.67968a1.29919,1.29919,0,0,1,.40039.87989c0,.44043-.24024.63965-.87988.63965a2.12191,2.12191,0,0,1-1.12012-.31934,53.44873,53.44873,0,0,1-9.39844,2.0791v5h2.16016c1.19922,0,7.31836-.12012,9.31836-.24023v3.91894c-2.96-.24023-7.91895-.43945-9.31836-.43945h-2.16016v4.8789h4.19922c4.08008,0,8.63867-.20019,11.27832-.36035v4.12012C990.35742,590.77539,986.99805,590.69531,986.11816,590.65527Z" transform="translate(-578.71387 -567.29883)"/><path class="cls-3" d="M1019.7998,603.333h-12.03808c-4.03906,0-8.0791.08008-12.11817.35937v-3.959c4.15918.28027,10.23829.36035,12.11817.36035h4.0791v-4.11914h-2.71973c-3.11914,0-6.23828.0791-9.31836.35937v-3.959c3.19922.2793,7.87891.35938,9.31836.35938h2.71973c0-1.999-.08008-2.55958-.12012-3.2793l4.2793.20019c.2002.04.63965.08008.63965.43946,0,.44043-.47949.64062-.91992.7998-.07911,1.16016-.07911,1.40039-.07911,1.83985h2.67872c3.16015,0,6.27929-.08008,9.43847-.31934V596.334c-4.03906-.35937-9.07812-.35937-9.43847-.35937h-2.67872v4.11914h4.15918c3.87891,0,8.27832-.08008,12.11719-.36035v3.959C1026.79785,603.37305,1021.15918,603.333,1019.7998,603.333Zm9.43848-12.67774a29.25717,29.25717,0,0,1-7.15918-5.71972,18.18,18.18,0,0,1-5.67871,3.7998L1014,586.49609v2.55957c-.75977-.08007-4.83887-.24023-5.59863-.24023h-4.71875c-1.56055,0-2.51953,0-6.67969.16016.04-1.40039.16016-4.67969.16016-7.19922v-5.5586c0-.71972-.08008-5.59961-.2002-6.83886,2.71973.16015,2.91992.16015,5.43945.16015h5.999c1.24023,0,3.55957,0,5.59863-.20019v3.23925c-2.19922-.20019-4.59863-.20019-6.03809-.20019v2.75977a46.67807,46.67807,0,0,0,4.87891-.16016c-.08008.75976-.12012,2.63965-.12012,2.91992V580.457c0,.67969.04,1.959.12012,2.67969-.87988-.08008-1.28027-.08008-4.87891-.08008v2.91895c1.31934,0,4.5586-.04,5.3584-.12012l-.04-.04a15.55223,15.55223,0,0,0,6.79883-3.47949c-.96-1.51953-1.35937-2.35938-3.43945-7.23828l3.12012-2.43946a18.94946,18.94946,0,0,0,2.67968,6.959,19.0719,19.0719,0,0,0,3.0791-7.19922h-3.959c-1.12012,0-4.51953.04-6.15918.20019v-3.31933c1.35938.16015,3.59961.24023,4.55859.24023h5.15918c1.71973,0,2.44043,0,4.08008-.12011l.71973,1.0791c-1.2002,4.71972-2.35938,8.27929-5.43945,11.918a19.0875,19.0875,0,0,0,7.71875,5.15918Zm-19.79687-12.918h-8.87891v2.75977h8.87891Zm-4.75977-5.39941h-4.03906v2.79981h4.03906Zm0,10.71875h-4.03906v2.959h4.03906Z" transform="translate(-578.71387 -567.29883)"/><path class="cls-3" d="M1053.16016,605.05273a47.44222,47.44222,0,0,0-7.59864-10.03808c-1.87988-1.79981-5.15918-4.79981-6.71875-5.959-1.44043-1.04-2.04-1.67968-2.04-3.12011,0-1.2793.59961-1.91895,2.24024-3.59961l4.79883-4.79883c3.03906-3.15918,6.43847-6.63867,8.43847-9.99805l3.59961,2.31934c.31934.20019.67969.44043.67969.91992a.63629.63629,0,0,1-.32031.55957c-.23926.12012-1.43946.44043-1.67969.52051-2.71875,2.67969-4.63867,4.59863-8.67871,8.59863-.91895.91992-2.59863,2.51953-3.35938,3.2793-.7998.75976-.999,1.27929-.999,1.71972a2.70309,2.70309,0,0,0,1.0791,1.87989c6.59961,5.79883,7.15918,6.3584,9.79883,9.43847,1.55957,1.83887,3.39941,4.07911,4.47949,5.39844Z" transform="translate(-578.71387 -567.29883)"/><path class="cls-3" d="M1078.28027,583.13672c-.75976,2.19922-1.51953,3.91894-1.79882,4.55859.7998,0,3.19921-.24023,3.55859-.31933v3.55859c-2.35938-.15918-5.75879-.19922-6.03906-.19922h-.87989V594.374h1.16016c1.16016,0,4.67969-.11914,5.75879-.23925v3.51953c-.87988-.04-4.75879-.28028-5.55859-.28028h-1.36036a70.06285,70.06285,0,0,0,.40039,7.11914h-4.31933a24.59136,24.59136,0,0,0,.16015-3.12011c0-1.11914.2002-2.87891.2002-3.999h-1.28027c-.55957,0-2.999.12012-3.4795.16016-.71972.04-1.11914.04-2.0791.12012v-3.51953a49.73186,49.73186,0,0,0,5.67871.23925h1.16016v-3.63867h-1.28027c-.59961,0-2.71973.15918-5.5586.43945V587.376a25.83063,25.83063,0,0,0,3.59864.31933,34.52392,34.52392,0,0,0-2.19922-4.55859c-.51953,0-.71973.04-2.51953.19922v-3.79883c1.67968.20019,4.51953.31934,6.51855.31934h1.52051v-4.23926h-.83985c-.83984,0-4.47949.16015-5.31933.32031v-3.55957c1.23926.20019,4.91894.28027,6.15918.28027,0-2.12011-.04-2.75976-.08008-4.63965l3.55859.24024c.76075.04,1.24024.08008,1.24024.67969,0,.56054-.51953.7998-1.24024,1.12011,0,.59961-.03906.79981-.03906,2.59961h.87988c2.11914,0,5.11914-.20019,6.07813-.28027v3.55957c-.43945-.04-.83984-.12012-1.43945-.16016-.67969-.04-3.63965-.16015-4.23926-.16015H1073.002v4.23926h1.67969c1.47949,0,4.91895-.15918,6.27832-.31934v3.79883A24.51312,24.51312,0,0,0,1078.28027,583.13672Zm-9.87793-.08008h-.59961a40.3417,40.3417,0,0,1,2.15918,4.63867h3.15918c.32032-.7998.80079-1.999,1.60059-4.63867Zm27.63575,21.11621a22.07321,22.07321,0,0,1-4.35938-3.39941,27.73556,27.73556,0,0,1-3.20019,3.59961l-2.55957-2.4795c.04.87989.12011,2.35938.12011,2.59961h-4.23926c.24024-2.55957.36036-11.27832.36036-12.39843V578.29688c0-1.4795-.2002-7.71876-.36036-9.03809a51.213,51.213,0,0,0,5.51954.24023h3.79882c1.40039,0,2.40039,0,5.4795-.24023-.2002,6.11914-.28028,8.23828-1.59961,9.958a5.38768,5.38768,0,0,1-4.43946,1.83984,13.26666,13.26666,0,0,1-1.63964-.12012l-1.59961-3.75879a26.2638,26.2638,0,0,0,3.39941.35938,1.4944,1.4944,0,0,0,1.67969-1.08008,17.88183,17.88183,0,0,0,.63965-4.0791h-7.51856v10.39844h5.51856c1.48046,0,4.91992-.12012,6.15918-.2002a36.98161,36.98161,0,0,1-3.55957,15.03809c1,1.11914,1.67968,1.75976,5,4.0791Zm-10.51856-18.35742v6.35937c0,3.11915.16016,6.2793.36035,9.39844a21.00865,21.00865,0,0,0,3.43946-3.59961,25.53533,25.53533,0,0,1-3.4795-10.39843l3.03907-1.43946a21.53034,21.53034,0,0,0,2.47949,8.27832,27.3755,27.3755,0,0,0,2.08008-8.59863Z" transform="translate(-578.71387 -567.29883)"/><path class="cls-3" d="M1136.59766,570.8584c-.04.96-.04,1.63965-.08008,2.55957,0,.7998-.04,4.75879-.04,5.63867v12.958c0,3.2793.12012,8.999.24023,12.11816h-3.71972c.32031-3.959.36035-7.91894.36035-11.918v-2.12011l-1.16016.44043a37.95394,37.95394,0,0,0-2.83984-9.07813v10.83789c0,3.55957.04,8.39844.40039,11.83789h-3.959c.2793-3.51953.4795-8.51855.4795-12.07812V590.415l-1.2002.44043a31.8835,31.8835,0,0,0-2.51953-9.0791c0,10.918-.59961,15.99707-5.27832,21.916l-1.71973-1.11914.08008,1.71973h-3.24023a23.36024,23.36024,0,0,0,.32031-2.83985h-7.51856c0,.91993.08008,2.04.12012,2.83985H1102.083c.12011-1.32031.24023-2.79981.36035-5.11914.16016-2.59961.28027-6.23926.28027-7.83887v-6.959c0-1.16016-.04-5.5586-.20019-8.23828a31.7509,31.7509,0,0,0,3.8789.16015v-4.08008h-.55957c-.67968,0-2.19922.08008-3.8789.16016v-3.0791c1.959.16015,2.79883.20019,4.43847.20019h5.39942c1.51953,0,3.03906-.04,4.59961-.16015v3.0791c-1.48047-.12012-2.40039-.16016-4.59961-.2002v4.08008c1.91992-.04,2.39941-.04,3.75976-.08008-.04,1.55957-.12011,5.15918-.12011,8.27832V587.416a45.656,45.656,0,0,0,2.31933-10.27832l1.71973.5996c-.04-4.51953-.12012-5.999-.24024-8.75878l3.12012.40039c.75977.08007.999.23925.999.55957,0,.40039-.35938.63964-.87891.91992v1.08008c0,.83984.03906,4.959.03906,5.91894l.76074-.40039a36.1306,36.1306,0,0,1,2.999,5.67969v-3.83984c0-2.31934-.12012-7.91895-.24024-10.07813l3.43946.43945c.60058.08008.96.16016.96.52051,0,.55957-.67969.79981-.96.91992-.08008,2.91895-.12012,4.5586-.12012,6.3584l.80078-.47949a36.85068,36.85068,0,0,1,3.19922,6.19922v-4.12012c0-1.7998-.04-2.11914-.08008-5.19922,0-1.67969-.08008-3.31933-.2002-5.03906l3,.36035c.999.12012,1.4795.12012,1.4795.71973S1136.99805,570.73828,1136.59766,570.8584Zm-23.876,16.67676c-1.47949.04-2.2793-.31934-2.71973-.91993a3.92273,3.92273,0,0,1-.51953-2.31933v-5.2793h-1.04c0,5.0791-.24023,6.999-2.12011,9.51856l-1.11915-.87989v4.04h7.51856Zm-7.51856-8.51856v6.75879a6.5119,6.5119,0,0,0,.96-2.51953,28.91683,28.91683,0,0,0,.23925-4.23926Zm7.51856,15.35742h-7.51856v4.39942h7.51856Zm-3.23926-22.15625h-1.04v4.08008h1.04Zm3.23926,6.79883h-.91992v4.71973c0,1.31933,0,1.43945.91992,1.35937Zm4.39941,12.11817-1.67968-.91993v3.63965c0,2.59961,0,3.2793.08007,6.67871,3.23926-4.55859,4.03907-8.59863,4.03907-17.27734A32.97643,32.97643,0,0,1,1117.12109,591.13477Z" transform="translate(-578.71387 -567.29883)"/></g><g class="cls-2"><path class="cls-3" d="M1165.06348,590.79346c-.15039,0-.81055-.08985-1.14063-.12012a31.073,31.073,0,0,0-5.51953,1.98c.03027.87012.03027,4.83008.05957,5.61035l-3.23926.21c.12012-.96.29981-2.42968.41992-4.62011a13.48858,13.48858,0,0,0-3.96,2.61035,4.1812,4.1812,0,0,0-1.20019,2.58008c0,2.30957,3.33008,2.5791,5.79,2.5791a27.79,27.79,0,0,0,6.80957-.89942l-.87012,3.08985c-.23926,0-.44922.03027-2.21973.17968-.68945.06055-1.53027.12012-2.81933.12012-5.49024,0-6.75-.71973-7.86035-1.67969a4.52569,4.52569,0,0,1-1.58985-3.45019c0-3.89942,4.86035-6.62988,7.62012-7.98a2.136,2.136,0,0,0-2.21973-1.79981c-1.65039,0-3.33007,1.29-4.29,2.21973a17.45142,17.45142,0,0,0-2.85058,3.81006L1143.374,593.794a31.3141,31.3141,0,0,0,6.33008-8.82081c-2.10058.24024-3,.36036-4.7998.4502l-.48047-2.84961c.81055.05957,1.62012.15039,2.82031.15039a34.68638,34.68638,0,0,0,3.56934-.21,30.29717,30.29717,0,0,0,1.44043-4.44043l3.3291.48047c.27051.0293.51074.17969.51074.47949,0,.33008-.06055.36035-1.11035,1.02051-.47949.98926-.59961,1.29-.92969,1.97949a33.62654,33.62654,0,0,0,6.38965-1.67969l-.29981,2.84961c-1.68066.41993-5.42968,1.08008-7.29,1.32032a34.09292,34.09292,0,0,1-1.71,3,10.52454,10.52454,0,0,1,3.21-.75,3.90273,3.90273,0,0,1,3.38964,2.25,5.43882,5.43882,0,0,1,.27051.83984,53.37983,53.37983,0,0,0,5.42969-2.40039l1.95019,2.49023a.65784.65784,0,0,1,.14942.41993A.42743.42743,0,0,1,1165.06348,590.79346Z" transform="translate(-578.71387 -567.29883)"/><path class="cls-3" d="M1191.46289,581.94385c.03027,1.08008.03027,1.41015.05957,1.91992h-2.60937c-.27051.54-.36036.75-.59961,1.16992h.86914c1.20019,0,5.12988-.08984,6.12011-.17969v2.03907c-5.63964-.11914-6.26953-.11914-6.75-.11914v1.16992c.4502,0,3.99024-.06055,5.79-.18067v1.68067c-.99023-.06055-1.25976-.09082-3.54-.09082h-2.25v1.20019c.87012,0,2.94043,0,5.82032-.12011v1.53027c-1.29-.05957-4.04981-.15039-5.82032-.15039v1.29053c3.90039,0,5.12989-.0293,6.71973-.12012v1.95019c-.80957-.05957-4.61914-.12011-5.5498-.12011h-5.06934c-.59961,0-4.37988.12011-5.09961.15039.12012-2.66992.12012-2.94043.12012-4.3501v-2.31055a9.777,9.777,0,0,1-2.16016,1.98047l-1.11035-1.25976a40.12984,40.12984,0,0,1,.36035,5.31005c0,.59961,0,6.62989-1.58984,8.90918-.33008.48047-.99024,1.41016-3.71973,1.41016a8.36473,8.36473,0,0,1-.90039-.03027l-1.37988-2.84961a18.1995,18.1995,0,0,0,2.33984.26953c.83985,0,1.91992,0,2.37012-3.35938a31.24006,31.24006,0,0,0,.33008-5.33984,25.44906,25.44906,0,0,1-3.83985,4.37988l-2.49023-1.65039c1.67969-1.0498,3.69043-2.78906,5.87988-7.16943a23.362,23.362,0,0,0-.78027-3.03027,20.80625,20.80625,0,0,1-2.81934,2.25l-2.28027-1.91993a11.929,11.929,0,0,0,4.08008-2.70019,15.007,15.007,0,0,0-2.58008-3.35938l1.91992-1.88965a20.5678,20.5678,0,0,1,2.40039,3.17969,16.2071,16.2071,0,0,0,1.91992-3.17969l2.2793,1.2295a.98784.98784,0,0,1,.2998.17968,24.27174,24.27174,0,0,0,3.1504.12012h.87011c0-1.29-.03027-1.43945-.06054-2.06933l2.70019.21c.17969.02929.50977.05957.50977.2998,0,.26953-.08985.33008-.57032.59961-.02929.50977-.02929.62988-.02929.99023h4.13965a19.22775,19.22775,0,0,0-.12012-1.95019l2.84961.15039c.09082,0,.45019.0293.45019.33008,0,.26953-.12011.33008-.59961.59961a7.79453,7.79453,0,0,0-.03027.87011c.50977,0,2.91016,0,4.46973-.15039v2.43067C1194.19238,582.00342,1192.27246,581.94385,1191.46289,581.94385Zm-9.21,0c-2.2793.05957-2.69922.08984-4.16992.15039v-1.86035a2.91983,2.91983,0,0,1-.65918.08984,28.73729,28.73729,0,0,1-2.46,3.50977,20.56634,20.56634,0,0,1,1.29,4.34961,12.34481,12.34481,0,0,0,4.46972-5.63965l1.5293.60058Zm12.08984,23.06982a23.93536,23.93536,0,0,1-7.31933-2.12988,23.47431,23.47431,0,0,1-8.40039,2.12988l-1.5-2.43066a18.69423,18.69423,0,0,0,7.37988-1.0791,19.65782,19.65782,0,0,1-3.17969-2.61036l2.28028-.99023a19.07181,19.07181,0,0,0,3.35937,2.46,12.37564,12.37564,0,0,0,3.36035-2.48926h-5.33984c-2.25,0-3.78028.0293-6.80957.17969V595.834c1.31933.08985,2.5498.17969,5.42969.17969h5.39941a36.37282,36.37282,0,0,0,4.71-.21l.80957.78027a17.14445,17.14445,0,0,1-4.91992,4.82911,23.23738,23.23738,0,0,0,6.54,1.08007Zm-8.33984-18.23974h-4.04981v1.13964h4.04981Zm0,2.5498h-4.04981v1.22949h4.04981Zm0,2.48926h-4.04981v1.29053h4.04981Zm-1.25977-9.89942c.03028,1.23047.03028,1.37989.05957,1.98047h-2.06933a10.748,10.748,0,0,1-.59961,1.13965h3.35937a9.63787,9.63787,0,0,0,1.01954-2.58008l2.34082.71973c.02929-.59961.02929-.83984.02929-1.25977Z" transform="translate(-578.71387 -567.29883)"/><path class="cls-3" d="M1207.21387,586.47314a26.76858,26.76858,0,0,1-2.12989,3.18067c.23926.21.38965.33008.38965.50976,0,.21-.05957.26954-.66015.75-.03028.4795-.03028,2.67041-.03028,3.3003v4.71c0,1.29.09082,4.76953.21,5.90918h-3.02929c.17968-2.87989.17968-4.97949.17968-6.92969v-5.12988a15.10149,15.10149,0,0,1-1.55957,1.35058l-2.28027-1.98047a14.53455,14.53455,0,0,0,3.87012-3.23974,22.11733,22.11733,0,0,0,3.50976-5.10059l2.28028,1.65039c.08984.08985.33008.26953.33008.50977C1208.294,586.41357,1207.87305,586.44385,1207.21387,586.47314Zm.86914-6.23925a1.74874,1.74874,0,0,1-.41992-.05957,23.82211,23.82211,0,0,1-2.69922,2.90918,18.14661,18.14661,0,0,1-4.08008,2.66992l-2.04-2.37012a15.15689,15.15689,0,0,0,7.25977-5.75976l2.25,1.91992a.46983.46983,0,0,1,.17968.36035C1208.5332,579.93408,1208.5332,580.23389,1208.083,580.23389Zm13.08008,16.98v2.60937c0,.54.05957,3.08985,0,3.39063a1.97716,1.97716,0,0,1-1.29,1.46972,26.27958,26.27958,0,0,1-3.62989.26953l-1.58984-3.23925a20.97881,20.97881,0,0,0,3.12012.2998c.71972,0,.71972-.2998.71972-1.44043v-3.38965h-6.33007c-.59961,0-3.17969.03028-3.71973.08985-.83984.06054-1.37988.15039-1.91992.21v-2.69922a39.71782,39.71782,0,0,0,5.84961.21h6.12011v-2.40039h-5.61035c-1.88965,0-3.77929.05957-5.66894.24023v-2.67041c1.88965.17969,4.16992.21,5.63965.21h6.68945a40.31032,40.31032,0,0,0,5.66992-.21V592.834c-1.67969-.15039-1.91992-.15039-4.0498-.21v2.33985c1.46972-.06055,3.62988-.12012,4.43945-.17969v2.69922A29.5562,29.5562,0,0,0,1221.16309,597.21387Zm-9.50977,5.33984a7.60014,7.60014,0,0,0-2.82031-3.39062l2.28027-1.499a10.9586,10.9586,0,0,1,2.75977,3.41895Zm7.7998-14.1001h-5.96972c-.54,0-2.7002.08985-3.78028.17969.08985-.96.08985-2.60937.08985-2.84961v-4.29c0-.89941-.0293-2.42969-.08985-3.33008,1.35059.09082,2.73047.15039,3.83985.15039h5.61035c.12012,0,2.30957,0,3.89941-.15039-.05957.99024-.08984,2.16016-.08984,3.15039v4.29a25.80176,25.80176,0,0,0,.08984,3.0293C1221.583,588.48389,1219.90332,588.45361,1219.45312,588.45361Zm.96-8.06933h-8.04v2.03906h8.04Zm0,4.01953h-8.04v2.06933h8.04Z" transform="translate(-578.71387 -567.29883)"/><path class="cls-3" d="M1244.02344,600.63379a11.79011,11.79011,0,0,1-6.92969,2.66992,6.98468,6.98468,0,0,1-5.28027-2.40039c-1.34961-1.62012-1.46973-3.0293-1.46973-5.66992,0-1.5293.27051-8.24951.27051-9.6294a56.69771,56.69771,0,0,0-.33008-6.81054l3.41992.48047c.71973.08984,1.01953.15039,1.01953.54,0,.26954-.08984.33008-.89941.87012-.09082.71973-.18067,1.5293-.27051,2.69922-.14941,2.2207-.35937,9.66065-.35937,10.86084,0,2.84961.11914,3.68945.80957,4.61914a4.5094,4.5094,0,0,0,3.47949,1.71,7.9768,7.9768,0,0,0,5.5498-2.66992,16.27753,16.27753,0,0,0,3.24024-5.75977l2.33984,2.19043A18.75,18.75,0,0,1,1244.02344,600.63379Z" transform="translate(-578.71387 -567.29883)"/><path class="cls-3" d="M1270.24316,602.88379a19.53885,19.53885,0,0,0-7.10937-3.90039,6.91744,6.91744,0,0,1,.05957.90039c0,3.68945-3.4502,3.98926-4.85938,3.98926-3.83984,0-6.5996-2.00977-6.5996-4.2295,0-2.58007,3.77929-3.92968,6.2998-3.92968a21.74838,21.74838,0,0,1,2.51953.17968c-.03027-.45019-.06055-.62988-.06055-.89941-.02929-.48047-.08984-2.55078-.11914-3.00049a54.94292,54.94292,0,0,1-5.87988-.08984c-.48047-.06055-2.28027-.30078-2.28027-1.74024,0-1.0498,1.08008-2.04,3.45019-3.54l1.5293,1.37988c-.83984.48047-1.58984.90039-1.58984,1.25976a.578.578,0,0,0,.48046.54,12.60483,12.60483,0,0,0,2.16016.12012c.56934,0,.68945,0,2.06934-.05957-.05957-1.26074-.05957-1.58984-.14942-4.62012a73.11693,73.11693,0,0,0-8.96972.54v-2.73047h8.90918c-.03028-1.73926-.05957-3.26953-.14942-4.19922l3.47949.24024c.14942,0,.54.05957.54.41992,0,.35938-.2998.50977-.92968.83984-.06055.96-.12012,1.64942-.1504,2.69922h8.42969v2.66992c-2.19043-.3291-2.30957-.3291-8.51953-.47949-.06055,1.64942-.06055,2.79-.03027,4.46973a35.42226,35.42226,0,0,0,7.43945-1.37988v2.5498a40.41233,40.41233,0,0,1-7.37891,1.02051c.0293.68994.14942,3.77978.17969,4.40967a21.06149,21.06149,0,0,1,8.42969,3.62988Zm-12.38964-4.86035c-.99024,0-3.17969.48047-3.17969,1.83008,0,1.01953,1.58984,1.62011,2.91015,1.62011.59961,0,2.51954-.17968,2.84961-1.56054a4.72912,4.72912,0,0,0,.12012-1.55957A17.1784,17.1784,0,0,0,1257.85352,598.02344Z" transform="translate(-578.71387 -567.29883)"/><path class="cls-3" d="M1290.10352,600.63379a11.79011,11.79011,0,0,1-6.92969,2.66992,6.98275,6.98275,0,0,1-5.2793-2.40039c-1.34961-1.62012-1.46973-3.0293-1.46973-5.66992,0-1.5293.26954-8.24951.26954-9.6294a56.49593,56.49593,0,0,0-.33008-6.81054l3.41992.48047c.71973.08984,1.02051.15039,1.02051.54,0,.26954-.08985.33008-.90039.87012-.08985.71973-.17969,1.5293-.26953,2.69922-.15039,2.2207-.36036,9.66065-.36036,10.86084,0,2.84961.12012,3.68945.80957,4.61914a4.51259,4.51259,0,0,0,3.48047,1.71,7.98027,7.98027,0,0,0,5.54981-2.66992,16.27083,16.27083,0,0,0,3.23926-5.75977l2.33984,2.19043A18.73672,18.73672,0,0,1,1290.10352,600.63379Z" transform="translate(-578.71387 -567.29883)"/><path class="cls-3" d="M1313.9541,603.24316a21.81877,21.81877,0,0,0-6.54-3.26953l.03028.75c-.12012,1.22949-.33008,3.56934-4.98047,3.56934-3.53907,0-5.459-1.5-5.459-3.3291,0-.41992,0-3.72071,6.53907-3.72071a12.26271,12.26271,0,0,1,1.44043.09082c-.27051-5.31054-.41993-8.76025-.4502-12.8706l2.33984.12012c.75.03027,1.16993.15039,1.16993.54a.62855.62855,0,0,1-.33008.50976c-.41992.30078-.59961.41992-.62989.93066-.03027.41993-.08984,2.51954-.12011,2.999a18.33339,18.33339,0,0,0,6.80957-1.10938v2.30957a21.24633,21.24633,0,0,1-6.83985.71973v.78076a50.28905,50.28905,0,0,0,.24024,5.37012,24.07991,24.07991,0,0,1,7.7998,3.17969Zm-10.88965-4.01953c-2.46,0-3.78027.80957-3.78027,1.74024,0,.80957,1.46973,1.37988,2.91016,1.37988,3.05957,0,2.93945-1.83008,2.87988-2.94043A12.91155,12.91155,0,0,0,1303.06445,599.22363Z" transform="translate(-578.71387 -567.29883)"/><path class="cls-3" d="M1330.99414,600.84375a14.67918,14.67918,0,0,1-7.41016,4.10937l-2.06933-2.79a12.993,12.993,0,0,0,6.62988-2.60938,10.10784,10.10784,0,0,0,3.92969-7.6499c0-1.86035-.81055-4.11035-3.81055-4.11035-1.76953,0-5.72949,1.23047-8.69922,3.36035-.08984.23926-.24023.54-.54.54-.33007,0-.45019-.30078-.71972-.90039l-1.08008-2.37012c6.66016-2.39941,9.35937-3.35938,11.78906-3.35938.36035,0,3.12012,0,4.53028,2.00977a8.00022,8.00022,0,0,1,1.46972,4.64941A13.15869,13.15869,0,0,1,1330.99414,600.84375Zm-.06055-19.02a5.82642,5.82642,0,0,0-2.78906.50977,11.42257,11.42257,0,0,0-2.82031,1.25976l-1.65039-1.10937c.30078-.12012,1.56055-.81055,1.83008-.96-2.06934-.4502-2.30957-.50977-2.69922-.62989-1.5-.45019-1.68067-.50976-1.86035-.57031l.36035-2.60937a22.02956,22.02956,0,0,0,8.63965,1.55957,8.06972,8.06972,0,0,0,1.40918-.15039Z" transform="translate(-578.71387 -567.29883)"/><path class="cls-3" d="M1348.78418,596.97363h-1.83008l-.68945-8.73v-7.85937h3.23926v7.85937Zm-2.51953,5.30957v-3.08984h3.23926v3.08984Zm10.19922-5.30957h-1.83008l-.68945-8.73v-7.85937h3.23925v7.85937Zm-2.51953,5.30957v-3.08984h3.23925v3.08984Z" transform="translate(-578.71387 -567.29883)"/></g></g></g></svg>