<svg id="レイヤー_1" data-name="レイヤー 1" xmlns="http://www.w3.org/2000/svg" viewBox="0 0 716.60107 146.25"><defs><style>.cls-1{isolation:isolate;}.cls-2{fill:#fefefe;}</style></defs><g id="ご相談をご利用される方の_よくあるご質問" data-name="ご相談をご利用される方の よくあるご質問" class="cls-1"><g class="cls-1"><path class="cls-2" d="M632.96826,559.668a176.88794,176.88794,0,0,1-20.97656,1.40625q-15.55663,0-21.44531-3.10547t-5.88868-9.16992q0-7.64649,8.11524-13.79883l5.83008,4.36523q-5.56641,5.30274-5.56641,8.70118a4.53639,4.53639,0,0,0,.35156,1.83105,4.06281,4.06281,0,0,0,1.71387,1.626,14.71285,14.71285,0,0,0,4.96582,1.34765,67.56051,67.56051,0,0,0,9.14063.55664h2.13867a138.49075,138.49075,0,0,0,20.36133-1.582Zm-3.7793-37.207a23.51332,23.51332,0,0,0-4.48242,1.27441,45.238,45.238,0,0,0-5.03906,2.3291l-7.998,4.30664-3.60351-5.15625q1.11329-.46875,6.79687-3.16406-8.67261.0879-26.04492.70313l-.23437-7.26563q8.3203-.293,31.69921-.293,3.63209,0,6.03516.0293Zm5.30274-4.51172-4.18945,1.61133q-2.22657-5.53711-4.07227-9.05274l4.13086-1.55273Q632.67456,513.4082,634.4917,517.94922Zm8.08594-1.23047-4.16016,1.55273q-1.81714-4.48242-4.07227-8.99414l4.043-1.49414Q640.614,512.08985,642.57764,516.71875Z" transform="translate(-584.65771 -507.7832)"/><path class="cls-2" d="M653.564,542.61719a62.63844,62.63844,0,0,1-5.65429,8.64258l-4.98047-4.7461a53.08842,53.08842,0,0,0,5.58105-9.21387,66.1221,66.1221,0,0,0,4.2627-10.708h-7.26563v-6.35742H653.564V509.21875h7.73438v11.01563h5.74219v6.35742h-5.74219v3.66211a31.05584,31.05584,0,0,0,7.06055,6.73828l-3.7793,6.29883q-1.905-1.78711-3.28125-3.19336v22.26562H653.564Zm36.53321,16.49414H676.82568v2.666h-8.02734V511.12305h29.38477v50.65429h-8.08594Zm0-34.18945v-7.207H676.82568v7.207Zm-13.27149,13.44726h13.27149v-7.207H676.82568Zm0,14.32617h13.27149v-8.08593H676.82568Z" transform="translate(-584.65771 -507.7832)"/><path class="cls-2" d="M724.16943,523.89648H705.21436V518.1543h18.95507Zm-1.20117,35.88868h-10.3125v2.168h-6.29883V542.14844h16.61133Zm.17578-44.209H707.148v-5.09765H723.144Zm-.293,15.9961H707.20654V526.5918h15.64453Zm0,7.88085H707.20654v-5.03906h15.64453Zm-6.123,15.17579v-7.26563h-3.83789v7.26563Zm25.69336-3.75a20.16557,20.16557,0,0,1-6.78223,6.958,29.609,29.609,0,0,1-9.7998,4.11621l-2.63672-6.416q7.67505-1.9043,11.10351-5.61035a12.17113,12.17113,0,0,0,3.42774-8.51074v-8.70118H745.644v8.4668a12.17133,12.17133,0,0,0,2.417,5.71289,16.76539,16.76539,0,0,0,6.35742,5.30274,30.62535,30.62535,0,0,0,7.80761,2.84179l-3.31054,6.79688Q747.57763,559.02344,742.42139,550.87891Zm.05859-24.082q-4.07226,7.47069-16.64062,10.60546l-2.51954-6.24023q7.17774-1.46484,10.88379-4.98047a11.252,11.252,0,0,0,3.70606-8.4668v-8.4375h7.67578v8.52539a11.4436,11.4436,0,0,0,4.96582,7.88086,29.41226,29.41226,0,0,0,11.41113,4.6875l-3.51562,6.6211Q747.57691,534.00391,742.48,526.79688Zm-6.85547,11.63085a42.36775,42.36775,0,0,1-2.44629,6.82618,39.61224,39.61224,0,0,1-3.2959,6.18164l-6.24023-2.13867a61.7313,61.7313,0,0,0,5.74219-12.07032Zm.49805-24.16992a40.44085,40.44085,0,0,1-5.71289,12.2168l-6.06446-2.08008a57.05723,57.05723,0,0,0,5.47852-11.2793Zm24.75586-.38086A57.6155,57.6155,0,0,1,753.437,525.332l-5.625-2.87109a40.62016,40.62016,0,0,0,6.18164-10.66406Zm-.82031,24.84375a94.21661,94.21661,0,0,1-6.79688,10.459l-5.44922-3.252a56.19953,56.19953,0,0,0,5.625-9.60937Z" transform="translate(-584.65771 -507.7832)"/><path class="cls-2" d="M802.83154,552.34375h-8.34961l.0293-11.51367q-10.459,5.127-10.459,9.58008,0,4.42383,10.07812,4.42382l3.252-.02929a148.56349,148.56349,0,0,0,19.92188-.9668l.41016,7.32422q-8.23316.791-16.14258.791-15.20508,0-20.39063-2.59277t-5.18554-8.01269q0-8.90625,17.02148-17.49024a2.73271,2.73271,0,0,0-2.28516-.9668,16.78068,16.78068,0,0,0-6.87011,1.9629,42.5375,42.5375,0,0,0-9.27246,6.4746q-3.575,3.16407-5.127,4.27735l-5.09765-5.50781a54.19567,54.19567,0,0,0,15.41015-16.875H767.26514V516.2793h15.55664a50.07877,50.07877,0,0,0,1.8457-6.65039l8.61328.46875q-.82031,3.63281-1.66992,6.18164h19.33594v6.94336H788.79834q-.76245,1.52343-2.8125,4.6875a17.9255,17.9255,0,0,1,5.625-.9668q5.97655,0,8.61328,3.69141,3.80787-1.64062,16.05469-6.44532l3.42773,6.97266q-5.77221,1.96288-17.22656,6.15234a35.8345,35.8345,0,0,1,.293,4.7168Z" transform="translate(-584.65771 -507.7832)"/><path class="cls-2" d="M872.96826,559.668a176.88794,176.88794,0,0,1-20.97656,1.40625q-15.55663,0-21.44531-3.10547t-5.88868-9.16992q0-7.64649,8.11524-13.79883l5.83008,4.36523q-5.56641,5.30274-5.56641,8.70118a4.53639,4.53639,0,0,0,.35156,1.83105,4.06281,4.06281,0,0,0,1.71387,1.626,14.71285,14.71285,0,0,0,4.96582,1.34765,67.56051,67.56051,0,0,0,9.14063.55664h2.13867a138.49075,138.49075,0,0,0,20.36133-1.582Zm-3.7793-37.207a23.51332,23.51332,0,0,0-4.48242,1.27441,45.238,45.238,0,0,0-5.03906,2.3291l-7.998,4.30664-3.60351-5.15625q1.11329-.46875,6.79687-3.16406-8.67261.0879-26.04492.70313l-.23437-7.26563q8.3203-.293,31.69921-.293,3.63209,0,6.03516.0293Zm5.30274-4.51172-4.18945,1.61133q-2.22657-5.53711-4.07227-9.05274l4.13086-1.55273Q872.67456,513.4082,874.4917,517.94922Zm8.08594-1.23047-4.16016,1.55273q-1.81714-4.48242-4.07227-8.99414l4.043-1.49414Q880.614,512.08985,882.57764,516.71875Z" transform="translate(-584.65771 -507.7832)"/><path class="cls-2" d="M898.28076,543.23242a56.9809,56.9809,0,0,1-10.2539,11.2793l-4.7461-5.09766a53.33732,53.33732,0,0,0,7.38281-7.9834,55.065,55.065,0,0,0,6.09375-9.59472h-10.752v-6.6211h12.27539v-6.21093q-6.32812.82031-10.78125,1.17187l-1.37695-6.35742a139.13578,139.13578,0,0,0,14.13574-1.65527,68.82334,68.82334,0,0,0,12.55371-2.94434l3.7793,6.09375a67.73343,67.73343,0,0,1-10.3711,2.49023v7.41211h10.07813v6.6211H906.22021v.14648a38.93933,38.93933,0,0,0,10.54688,9.19922l-4.24805,6.35742a46.96906,46.96906,0,0,1-6.29883-5.30273v20.18555h-7.93945Zm27.68555,5.50781h-7.5586V512.5h7.5586Zm12.334,6.97266a5.38275,5.38275,0,0,1-2.00683,4.14551,6.452,6.452,0,0,1-4.35059,1.77246h-7.793l-1.31836-7.23633h5.50782q2.168,0,2.168-1.81641v-43.0664h7.793Z" transform="translate(-584.65771 -507.7832)"/><path class="cls-2" d="M989.07129,544.19922H977.61621v17.31445H969.208V544.19922H957.60693a37.27175,37.27175,0,0,1-7.93945,18.33984l-6.18164-4.13086q6.59179-8.93554,6.5918-24.3164V510.83008H997.4209v44.26758a5.67047,5.67047,0,0,1-2.13867,4.46777,7.62156,7.62156,0,0,1-5.127,1.83105h-8.46679l-1.20118-7.55859H987.167q1.90429,0,1.9043-1.43555Zm-30.84912-6.6211H969.208v-6.94335H958.33936v2.63671Q958.33936,535.20509,958.22217,537.57812ZM969.208,517.53906H958.33936v6.67969H969.208Zm19.86328,6.67969v-6.67969H977.61621v6.67969Zm-11.45508,13.35937h11.45508v-6.94335H977.61621Z" transform="translate(-584.65771 -507.7832)"/><path class="cls-2" d="M1053.93457,559.72656a69.99026,69.99026,0,0,1-18.07617,2.19727q-14.23829,0-20.127-3.501a11.22255,11.22255,0,0,1-5.88868-10.23926,11.92969,11.92969,0,0,1,5.88868-10.60547q5.88867-3.7793,14.85351-3.77929a64.00515,64.00515,0,0,1,7.93945.84961q-2.22655-3.39845-4.541-7.47071h-27.041v-7.26562h23.70117a78.02961,78.02961,0,0,1-2.63671-9.14063l8.584-.791q.58595,2.57812,2.98828,9.93164h19.51172v7.26562H1043.124a34.512,34.512,0,0,0,10.40039,11.48438l-4.57031,6.18164a37.1407,37.1407,0,0,0-18.04687-4.33594,18.75423,18.75423,0,0,0-8.99414,1.9336,6.05752,6.05752,0,0,0-3.57422,5.5664q0,6.416,17.72461,6.416a67.91468,67.91468,0,0,0,8.61328-.64453,44.34813,44.34813,0,0,0,7.88086-1.61133Z" transform="translate(-584.65771 -507.7832)"/><path class="cls-2" d="M1076.2002,545.54688q-4.57032,6.67968-7.793,10.63476l-4.57032-6.47461a157.63929,157.63929,0,0,0,11.19141-14.94141q.35157-.791,1.17188-2.43164v-6.5625h-10.19532V519.0918h10.19532v-9.46289h8.32031v16.43554q10.86913-10.51758,18.60351-10.51757a10.92068,10.92068,0,0,1,7.77832,2.8125,9.68028,9.68028,0,0,1,3.00293,7.4121q0,2.60744-1.084,12.97852-.87891,8.4082-1.11328,12.27539v.58594q0,1.99218,1.37695,1.99219,1.96289,0,7.55859-3.01758l1.9336,6.79687q-5.6543,3.8672-10.752,3.86719a8.31356,8.31356,0,0,1-6.32813-2.37305,9.01217,9.01217,0,0,1-2.25586-6.47461q0-1.084,1.28906-13.74023.70313-7.26562.82032-12.24609v-.43946q0-2.92968-3.04688-2.92968-2.40234,0-6.9873,2.94433a63.2249,63.2249,0,0,0-10.7959,9.44824V562.1875h-8.32031Z" transform="translate(-584.65771 -507.7832)"/><path class="cls-2" d="M1161.33691,553.69141q7.14845-2.8125,7.14844-8.96485a7.97464,7.97464,0,0,0-3.53027-6.87011,14.99015,14.99015,0,0,0-8.8916-2.50489h-.73243a22.97989,22.97989,0,0,0-5.49316.791,34.61664,34.61664,0,0,0-5.918,2.05078,33.4118,33.4118,0,0,0-4.6582,2.51953q-1.88965,1.25976-8.77442,6.35742l-4.6875-5.88867q23.93556-16.40625,30.61524-21.5332h-24.78516V512.793h35.39063l4.21875,4.51172q-6.29883,4.18945-18.7793,12.77343a24.79593,24.79593,0,0,1,6.03516-.9375q8.64258,0,13.53515,3.94043t4.89258,11.32325a14.94543,14.94543,0,0,1-6.92871,13.22754q-6.92871,4.61425-18.2373,4.61425-7.4707,0-11.85059-2.46093a7.82793,7.82793,0,0,1-4.37988-7.207q0-3.83789,3.73535-6.46a13.9038,13.9038,0,0,1,8.15918-2.62207Q1158.34863,543.49609,1161.33691,553.69141Zm-7.55859,1.93359q-1.90429-5.97657-6.94336-5.97656a4.413,4.413,0,0,0-2.60742.80566,2.45885,2.45885,0,0,0-1.14258,2.09473q0,3.22266,7.55859,3.22265Q1152.31349,555.77148,1153.77832,555.625Z" transform="translate(-584.65771 -507.7832)"/><path class="cls-2" d="M1209.2959,524.45312q-.0879,3.28125-.293,5.39063h24.81445q0,10.25391-.55664,16.49414a34.61263,34.61263,0,0,1-1.59668,8.833,8.9037,8.9037,0,0,1-3.85254,4.292,12.73067,12.73067,0,0,1-6.709,1.69922h-9.25781l-1.20118-7.61719h9.082q3.98438,0,4.834-4.45312a71.36751,71.36751,0,0,0,.84961-12.59766h-17.25586a35.81177,35.81177,0,0,1-7.10449,15.36621,38.04549,38.04549,0,0,1-13.13965,10.03418l-4.13086-6.00586a32.14269,32.14269,0,0,0,12.77344-11.52832q4.248-6.9873,4.39453-18.58887l.0293-1.31836h-14.97071v-7.08984h22.002v-7.91016h8.291v7.91016h23.4668v7.08984Z" transform="translate(-584.65771 -507.7832)"/><path class="cls-2" d="M1271.1416,561.74805l-2.168-7.32422q11.63087-1.28907,17.49024-5.36133t5.85937-12.1582q0-6.76758-4.21875-10.8545t-11.68945-4.79q-.61524,16.40625-6.1377,26.58691T1256.376,558.02734q-5.44923,0-8.81836-5.1416a20.9771,20.9771,0,0,1-3.36914-11.76269v-.73243q0-10.13672,8.15918-17.94433t20.58105-8.39356h1.20117q11.86524,0,19.49707,6.02051t7.63184,16.36231q0,11.33789-7.69043,17.7539T1271.1416,561.74805Zm-2.959-39.63867a20.78833,20.78833,0,0,0-11.20606,6.91406,17.73328,17.73328,0,0,0-4.61426,11.83594,16.19514,16.19514,0,0,0,1.14258,6.15234q1.14258,2.8125,3.19336,2.8125,4.13087,0,7.5-8.02734T1268.18262,522.10938Z" transform="translate(-584.65771 -507.7832)"/></g><g class="cls-1"><path class="cls-2" d="M789.1499,643.54492l-5.15625,7.06055a76.84936,76.84936,0,0,0-16.96289-10.66406q0,6.50389-2.98828,9.40429T754.023,652.24609q-8.02734,0-12.52441-2.82714a9.17449,9.17449,0,0,1-4.49708-8.27637,9.683,9.683,0,0,1,4.95118-8.59863,22.252,22.252,0,0,1,12.09961-3.12012,37.88977,37.88977,0,0,1,4.51171.293v-30.293h8.64258v10.98633h19.65821v7.26562H767.20654v13.97461Q777.57765,635.01952,789.1499,643.54492Zm-30.41015-6.5039a25.07952,25.07952,0,0,0-4.6875-.46875,16.3566,16.3566,0,0,0-6.21094,1.09863q-2.696,1.09863-2.69531,3.12012a3.29269,3.29269,0,0,0,2.22656,3.01757,12.5907,12.5907,0,0,0,5.41992,1.05469q3.66211,0,4.80469-1.06933a3.989,3.989,0,0,0,1.14258-3.06153Z" transform="translate(-584.65771 -507.7832)"/><path class="cls-2" d="M841.18115,647.85156l-6.67969,6.18164-8.46679-7.14843q-3.8672-3.28125-7.44141-5.83008l-6.73828-4.59961q-6.47533-4.45312-8.02734-5.80078a8.09925,8.09925,0,0,1-2.168-2.72461,7.53382,7.53382,0,0,1-.61524-3.10547q0-4.01367,4.48243-7.03125,1.582-1.02538,7.03125-4.70215t8.74511-6.25488q3.2959-2.57812,9.53614-7.88086l6.91406,5.44922A257.6509,257.6509,0,0,1,815.019,620.957q-1.084.67383-3.07617,1.99219a24.08791,24.08791,0,0,0-2.05078,1.4209.71019.71019,0,0,0-.05859.33691c0,.21485.04834.35156.14648.41016l5.30273,3.54492q10.04811,6.709,15.23438,10.51758Q835.70263,642.98828,841.18115,647.85156Z" transform="translate(-584.65771 -507.7832)"/><path class="cls-2" d="M883.04639,652.1875l-1.20118-7.08984q19.33595,0,19.33594-11.01563,0-5.85937-7.32422-8.4375a53.5608,53.5608,0,0,1-12.90527,17.05078q-8.15918,7.207-15.95215,7.207a9.37022,9.37022,0,0,1-7.08984-2.62207q-2.52027-2.62206-2.51953-7.33886a16.66038,16.66038,0,0,1,4.02832-10.66407,28.45466,28.45466,0,0,1,10.64941-7.96875q-.08789-2.51952-.08789-7.4414H856.59131v-6.5918h13.59375q.11646-2.28516.26367-6.94336h8.4082q-.05933,2.9297-.32226,6.94336h26.36719v6.5918H878.12451q-.05932,3.04688-.05859,4.92187a37.55126,37.55126,0,0,1,7.207-.70312q10.69337,0,17.59277,4.27734a13.50822,13.50822,0,0,1,6.89942,12.12891,14.68408,14.68408,0,0,1-7.1045,13.13965q-7.10448,4.55566-18.85253,4.55566Zm-12.45118-23.4668q-7.47069,5.00978-7.4707,10.54688,0,3.72071,2.63672,3.7207,2.90039,0,6.88477-2.7539A72.288,72.288,0,0,1,870.59521,628.7207Zm15.52735-4.42382a5.16611,5.16611,0,0,0-.87891-.0586,31.54855,31.54855,0,0,0-7.17773,1.05469,73.43039,73.43039,0,0,0,1.11328,9.4043A38.864,38.864,0,0,0,886.12256,624.29688Z" transform="translate(-584.65771 -507.7832)"/><path class="cls-2" d="M951.3374,643.69141q7.14771-2.8125,7.14844-8.96485a7.97464,7.97464,0,0,0-3.53027-6.87011,14.99123,14.99123,0,0,0-8.89161-2.50489h-.73242a22.97323,22.97323,0,0,0-5.49316.791,34.61664,34.61664,0,0,0-5.918,2.05078,33.4118,33.4118,0,0,0-4.6582,2.51953q-1.88966,1.25976-8.77442,6.35742l-4.6875-5.88867q23.93482-16.40625,30.61524-21.5332H921.63037V602.793H957.021l4.21826,4.51172q-6.29883,4.18945-18.77881,12.77343a24.79253,24.79253,0,0,1,6.03516-.9375q8.64184,0,13.53466,3.94043,4.89258,3.94044,4.89258,11.32325a14.94607,14.94607,0,0,1-6.92822,13.22754q-6.92871,4.61425-18.23731,4.61425-7.47069,0-11.85058-2.46093a7.82793,7.82793,0,0,1-4.37988-7.207q0-3.83789,3.73535-6.46a13.9038,13.9038,0,0,1,8.15918-2.62207Q948.34838,633.49609,951.3374,643.69141Zm-7.55859,1.93359q-1.905-5.97657-6.94336-5.97656a4.412,4.412,0,0,0-2.60742.80566,2.45885,2.45885,0,0,0-1.14258,2.09473q0,3.22266,7.55859,3.22265Q942.314,645.77148,943.77881,645.625Z" transform="translate(-584.65771 -507.7832)"/><path class="cls-2" d="M1022.96777,649.668a176.88133,176.88133,0,0,1-20.97656,1.40625q-15.55664,0-21.44531-3.10547t-5.88867-9.16992q0-7.64649,8.11523-13.79883l5.83008,4.36523q-5.56641,5.30274-5.56641,8.70118a4.53623,4.53623,0,0,0,.35157,1.83105,4.06271,4.06271,0,0,0,1.71386,1.626,14.71292,14.71292,0,0,0,4.96582,1.34765,67.56062,67.56062,0,0,0,9.14063.55664h2.13867a138.49075,138.49075,0,0,0,20.36133-1.582Zm-3.77929-37.207a23.53324,23.53324,0,0,0-4.48243,1.27441,45.238,45.238,0,0,0-5.03906,2.3291l-7.998,4.30664-3.60352-5.15625q1.11329-.46875,6.79687-3.16406-8.67187.0879-26.04492.70313l-.23437-7.26563q8.32031-.293,31.69922-.293,3.6328,0,6.03515.0293Zm5.30273-4.51172-4.18945,1.61133q-2.22657-5.53711-4.07227-9.05274l4.13086-1.55273Q1022.67481,603.4082,1024.49121,607.94922Zm8.08594-1.23047-4.16016,1.55273q-1.81641-4.48242-4.07226-8.99414l4.043-1.49414Q1030.61426,602.08985,1032.57715,606.71875Z" transform="translate(-584.65771 -507.7832)"/><path class="cls-2" d="M1056.33691,646.65039a37.25042,37.25042,0,0,1-8.95019,3.60352,64.9219,64.9219,0,0,1-10.23926,2.28515l-1.93359-5.68359a77.24751,77.24751,0,0,0,13.35937-3.42774h-8.55469V621.25a15.52109,15.52109,0,0,1-1.25976,1.05469l-5.03906-4.13086a14.54949,14.54949,0,0,0,2.7539-3.55957,13.88809,13.88809,0,0,0,1.59668-4.13086,34.86881,34.86881,0,0,0,.39551-6.167q0-1.64062-.05859-3.48633,14.12109-.26367,21.65039-1.9336l2.92968,4.92188q-4.80468,1.28905-17.168,1.75781v1.96289h17.51953v5.27344h-6.24024v5.83008h-7.17773V612.8125h-4.834a17.13364,17.13364,0,0,1-3.92578,7.26562h23.75977l-4.45313-3.10546a14.58719,14.58719,0,0,0,2.82715-3.57422,11.74442,11.74442,0,0,0,1.28906-3.67676,46.34533,46.34533,0,0,0,.30762-6.51856q0-1.14256-.0293-2.373,13.916-.26367,21.47461-1.9336l2.92969,4.92188q-5.03905,1.34766-17.168,1.81641v1.90429H1090.292v5.27344h-6.47461v5.83008h-7.26562V612.8125h-5.15625a13.244,13.244,0,0,1-5.03906,7.26562h19.18945v23.34961h-8.90625a99.36872,99.36872,0,0,0,13.88672,2.8711l-3.04688,6.18164q-14.76562-2.90038-18.89648-5.50781l2.22656-3.54493h-16.96289Zm21.123-19.541v-2.959H1048.0459v2.959Zm-29.41406,5.88867H1077.46v-2.78321H1048.0459Zm29.41406,3.10547H1048.0459v2.98828H1077.46Z" transform="translate(-584.65771 -507.7832)"/><path class="cls-2" d="M1120.11621,621.2793h-15.23437v31.14258H1097.001v-52.207h23.11523Zm-7.38281-12.42188v-3.7793h-7.85156v3.7793Zm0,7.61719V612.8125h-7.85156v3.66211Zm4.248,27.59766v1.582h-7.61719V625.11719h26.10351v18.95508Zm0-5.918h10.98632v-7.44141h-10.98632Zm31.377,8.3789a4.71721,4.71721,0,0,1-1.91895,3.82325,7.14767,7.14767,0,0,1-4.61425,1.53808h-6.76758l-.791-6.50391h4.39453a1.92436,1.92436,0,0,0,1.27442-.48339,1.49718,1.49718,0,0,0,.57129-1.18653V621.2793h-15.70313V600.21484h23.55469Zm-16.05469-37.67578h8.20313v-3.7793h-8.20313Zm8.20313,3.95508h-8.20313v3.66211h8.20313Z" transform="translate(-584.65771 -507.7832)"/></g></g></svg>